<?xml version="1.0" standalone="no"?>
<!DOCTYPE svg PUBLIC "-//W3C//DTD SVG 1.1//EN" "http://www.w3.org/Graphics/SVG/1.1/DTD/svg11.dtd">
<svg width="100%" height="100%" viewBox="0 0 75 75" version="1.1" xmlns="http://www.w3.org/2000/svg" xmlns:xlink="http://www.w3.org/1999/xlink" xml:space="preserve" style="fill-rule:evenodd;clip-rule:evenodd;stroke-linejoin:round;stroke-miterlimit:1.41421;">
    <g transform="matrix(0.21911,0,0,0.21911,-9.6626,-9.85994)">
        <path d="M384,130.25C384,83.199 345.801,45 298.75,45L128.25,45C81.199,45 43,83.199 43,130.25L43,300.75C43,347.801 81.199,386 128.25,386L298.75,386C345.801,386 384,347.801 384,300.75L384,130.25Z" style="fill:rgb(0,182,166);"/>
    </g>
    <g id="svg_10" transform="matrix(0.11286,0,0,0.11286,1.95342,7.10421)">
        <path id="svg_12" d="M182.205,241.548C206.888,241.548 226.896,221.969 226.896,197.818C226.896,173.663 206.888,154.081 182.205,154.081C157.525,154.081 137.516,173.663 137.516,197.818C137.516,221.969 157.525,241.548 182.205,241.548L182.205,241.548Z" style="fill:white;fill-rule:nonzero;"/>
        <path id="svg_14" d="M278.705,185.416L457.339,185.416C483.547,185.416 498.985,201.923 498.985,224.022L498.985,287.297L278.705,287.297L278.705,185.416L278.705,185.416Z" style="fill:white;fill-rule:nonzero;"/>
        <path id="svg_15" d="M230.081,208.057L230.081,246.007L161.4,246.007C128.242,246.123 128.188,287.833 161.4,287.833L251.441,287.833C264.59,287.833 272.822,277.447 272.822,265.699L272.822,208.057C272.822,176.48 230.081,176.48 230.081,208.057L230.081,208.057Z" style="fill:white;fill-rule:nonzero;"/>
        <path id="svg_16" d="M128.983,148.953C128.983,114.515 80.158,114.515 80.158,148.953L80.158,425.106L130.067,425.106L130.067,353.789L509.805,353.789L509.805,424.57L558.628,424.57L558.628,211.279C558.628,174.936 509.263,174.936 509.263,211.279L509.263,296.412L128.983,296.412L128.983,148.953L128.983,148.953Z" style="fill:white;fill-rule:nonzero;"/>
    </g>
</svg>
