<?xml version="1.0" standalone="no"?>
<!DOCTYPE svg PUBLIC "-//W3C//DTD SVG 1.1//EN" "http://www.w3.org/Graphics/SVG/1.1/DTD/svg11.dtd">
<svg width="100%" height="100%" viewBox="0 0 75 75" version="1.1" xmlns="http://www.w3.org/2000/svg" xmlns:xlink="http://www.w3.org/1999/xlink" xml:space="preserve" style="fill-rule:evenodd;clip-rule:evenodd;stroke-linejoin:round;stroke-miterlimit:1.41421;">
    <path d="M55.797,74.717L18.438,74.717C8.129,74.717 -0.241,66.347 -0.241,56.037L-0.241,18.679C-0.241,8.37 8.129,0 18.438,0L55.797,0C66.106,0 74.476,8.37 74.476,18.679L74.476,56.037C74.476,66.347 66.106,74.717 55.797,74.717ZM19.865,13.762L15.818,13.762C14.267,13.762 13,15.025 13,16.58L13,60.182C13,61.733 14.263,63 15.818,63L57.79,63C59.341,63 60.608,61.737 60.608,60.182L60.608,16.58C60.608,15.029 59.341,13.762 57.79,13.762L53.739,13.762L53.739,20.43C53.739,22.077 52.398,23.419 50.75,23.419L50.287,23.419C48.635,23.419 47.294,22.077 47.294,20.43L47.294,13.762L40.031,13.762L40.031,20.43C40.031,22.077 38.69,23.419 37.042,23.419L36.57,23.419C34.919,23.419 33.577,22.077 33.577,20.43L33.577,13.762L26.315,13.762L26.315,20.43C26.315,22.077 24.973,23.419 23.326,23.419L22.858,23.419C21.211,23.419 19.865,22.077 19.865,20.43L19.865,13.762ZM57.79,61.999L15.818,61.999C14.813,61.999 13.996,61.187 13.996,60.182L13.996,16.58C13.996,15.58 14.813,14.758 15.818,14.758L18.869,14.758L18.869,20.439C18.869,22.624 20.66,24.415 22.858,24.428L23.326,24.428C25.524,24.428 27.315,22.637 27.315,20.439L27.315,14.758L32.581,14.758L32.581,20.443C32.581,22.637 34.368,24.428 36.566,24.428L37.038,24.428C39.232,24.428 41.023,22.637 41.023,20.439L41.023,14.758L46.293,14.758L46.293,20.443C46.293,22.637 48.08,24.428 50.287,24.428L50.746,24.428C52.948,24.428 54.74,22.637 54.74,20.439L54.74,14.762L57.79,14.762C58.791,14.763 59.608,15.575 59.608,16.58L59.608,60.186C59.608,61.191 58.795,61.999 57.79,61.999ZM57.716,31.381L15.897,31.381L15.897,59.88L57.716,59.88L57.716,31.381ZM56.715,58.875L16.893,58.875L16.893,58.884L16.889,58.875L16.893,58.875L16.893,32.386L56.715,32.386L56.715,58.875ZM27.773,55.619C28.214,55.619 28.577,55.252 28.577,54.815L28.572,54.81L28.572,52.407C28.572,51.966 28.205,51.603 27.768,51.603L25.365,51.603C24.924,51.603 24.561,51.966 24.561,52.411L24.561,54.815C24.561,55.256 24.924,55.619 25.369,55.619L27.773,55.619ZM35.927,55.601C36.368,55.601 36.731,55.234 36.731,54.797L36.731,52.385C36.731,51.944 36.368,51.586 35.922,51.586L33.519,51.586C33.078,51.586 32.719,51.948 32.719,52.394L32.719,54.797C32.719,55.239 33.078,55.601 33.523,55.601L35.927,55.601ZM44.085,55.584C44.526,55.584 44.889,55.217 44.889,54.78L44.889,52.372C44.889,51.931 44.526,51.568 44.081,51.568L41.677,51.568C41.236,51.568 40.873,51.931 40.873,52.376L40.873,54.78C40.873,55.221 41.236,55.584 41.682,55.584L44.085,55.584ZM53.047,52.359C53.047,51.918 52.68,51.551 52.243,51.551L49.831,51.551C49.39,51.551 49.032,51.918 49.032,52.355L49.032,54.767C49.032,55.208 49.394,55.566 49.831,55.566L52.243,55.566C52.685,55.566 53.047,55.204 53.047,54.767L53.047,52.359ZM27.768,44.651L25.365,44.651C24.924,44.651 24.561,45.013 24.561,45.45L24.561,47.863C24.561,48.304 24.924,48.662 25.369,48.662L27.773,48.662C28.214,48.662 28.577,48.3 28.577,47.863L28.572,47.863L28.572,45.45C28.572,45.009 28.205,44.651 27.768,44.651ZM35.922,44.629L33.519,44.629C33.078,44.629 32.719,44.992 32.719,45.429L32.719,47.845C32.719,48.286 33.078,48.649 33.523,48.649L35.927,48.649C36.368,48.649 36.731,48.282 36.731,47.845L36.731,45.433C36.731,44.992 36.368,44.629 35.922,44.629ZM44.081,44.611L41.677,44.611C41.236,44.611 40.873,44.97 40.873,45.415L40.873,47.828C40.873,48.269 41.236,48.632 41.682,48.632L44.085,48.632C44.526,48.632 44.889,48.269 44.889,47.832L44.889,45.415C44.889,44.974 44.526,44.611 44.081,44.611ZM52.243,44.594L49.831,44.594C49.39,44.594 49.032,44.957 49.032,45.402L49.032,47.806C49.032,48.247 49.394,48.614 49.831,48.614L52.243,48.614C52.685,48.614 53.047,48.247 53.047,47.81L53.047,45.398C53.047,44.957 52.68,44.594 52.243,44.594ZM36.731,47.845C36.731,47.845 36.731,47.849 36.731,47.849L36.731,47.845ZM36.731,40.884L36.731,38.485C36.731,38.044 36.368,37.681 35.922,37.681L33.519,37.681C33.078,37.681 32.719,38.048 32.719,38.485L32.719,40.888C32.719,41.33 33.078,41.692 33.523,41.692L35.927,41.692C36.368,41.692 36.731,41.33 36.731,40.884ZM44.085,41.675C44.526,41.675 44.889,41.308 44.889,40.871L44.889,38.468C44.889,38.026 44.526,37.664 44.081,37.664L41.677,37.664C41.236,37.664 40.873,38.026 40.873,38.472L40.873,40.875C40.873,41.317 41.236,41.675 41.682,41.675L44.085,41.675ZM52.243,41.657C52.685,41.657 53.047,41.299 53.047,40.853L53.047,38.441C53.047,37.996 52.68,37.646 52.243,37.646L49.831,37.646C49.39,37.646 49.032,38.004 49.032,38.45L49.032,40.853C49.032,41.299 49.394,41.657 49.831,41.657L52.243,41.657ZM36.731,40.884L36.731,40.888L36.731,40.884ZM23.238,11L22.941,11C22.207,11 21.608,11.861 21.608,12.923L21.608,19.543C21.608,20.605 22.207,21.466 22.941,21.466L23.238,21.466C23.977,21.465 24.575,20.605 24.575,19.543L24.575,12.923C24.575,11.861 23.981,11 23.238,11ZM36.951,11L36.653,11C35.919,11 35.321,11.861 35.321,12.923L35.321,19.543C35.321,20.605 35.919,21.466 36.653,21.466L36.951,21.466C37.689,21.465 38.288,20.605 38.288,19.543L38.288,12.923C38.288,11.861 37.693,11 36.951,11ZM50.624,11L50.331,11C49.588,11 48.989,11.861 48.989,12.923L48.989,19.543C48.989,20.605 49.588,21.466 50.331,21.466L50.624,21.466C51.358,21.465 51.956,20.605 51.956,19.543L51.956,12.923C51.956,11.861 51.358,11 50.624,11Z" style="fill:rgb(222,182,51);"/>
</svg>
