<?xml version="1.0" standalone="no"?>
<!DOCTYPE svg PUBLIC "-//W3C//DTD SVG 1.1//EN" "http://www.w3.org/Graphics/SVG/1.1/DTD/svg11.dtd">
<svg width="100%" height="100%" viewBox="0 0 75 75" version="1.1" xmlns="http://www.w3.org/2000/svg" xmlns:xlink="http://www.w3.org/1999/xlink" xml:space="preserve" style="fill-rule:evenodd;clip-rule:evenodd;stroke-linejoin:round;stroke-miterlimit:1.41421;">
    <g transform="matrix(0.21911,0,0,0.21911,-9.6626,-9.85994)">
        <path d="M384,130.25C384,83.199 345.801,45 298.75,45L128.25,45C81.199,45 43,83.199 43,130.25L43,300.75C43,347.801 81.199,386 128.25,386L298.75,386C345.801,386 384,347.801 384,300.75L384,130.25Z" style="fill:rgb(0,30,166);"/>
    </g>
    <g transform="matrix(0.148931,0,0,0.143846,-4.31323,30.205)">
        <path d="M175.186,237.498L175.186,-106.096L286.514,-106.096C328.702,-106.096 356.202,-104.377 369.014,-100.94C388.702,-95.784 405.186,-84.573 418.467,-67.307C431.748,-50.041 438.389,-27.737 438.389,-0.393C438.389,20.701 434.561,38.435 426.905,52.81C419.248,67.185 409.522,78.474 397.725,86.677C385.928,94.88 373.936,100.31 361.748,102.966C345.186,106.248 321.202,107.888 289.795,107.888L244.561,107.888L244.561,237.498L175.186,237.498ZM244.561,-47.971L244.561,49.529L282.53,49.529C309.873,49.529 328.155,47.732 337.373,44.138C346.592,40.545 353.819,34.92 359.053,27.263C364.288,19.607 366.905,10.701 366.905,0.545C366.905,-11.955 363.233,-22.268 355.889,-30.393C348.545,-38.518 339.248,-43.596 327.998,-45.627C319.717,-47.19 303.077,-47.971 278.077,-47.971L244.561,-47.971Z" style="fill:white;fill-rule:nonzero;"/>
    </g>
</svg>
