<?xml version="1.0" standalone="no"?>
<!DOCTYPE svg PUBLIC "-//W3C//DTD SVG 1.1//EN" "http://www.w3.org/Graphics/SVG/1.1/DTD/svg11.dtd">
<svg width="100%" height="100%" viewBox="0 0 190 24" version="1.1" xmlns="http://www.w3.org/2000/svg" xmlns:xlink="http://www.w3.org/1999/xlink" xml:space="preserve" style="fill-rule:evenodd;clip-rule:evenodd;stroke-linejoin:round;stroke-miterlimit:1.41421;">
    <g transform="matrix(0.205296,0,0,0.205296,0.260935,20.1636)">
        <path d="M158.04,-70.32C163,-70.32 165.48,-71.52 165.48,-73.92C165.48,-75.12 165.9,-75.72 166.74,-75.72C167.58,-75.72 168,-74.74 168,-72.78C168,-70.82 166.88,-69.32 164.64,-68.28C162.4,-67.24 160.42,-66.72 158.7,-66.72C156.98,-66.72 155.56,-66.8 154.44,-66.96C142.68,-68.48 132.6,-71.04 124.2,-74.64C118.52,-65.68 113.44,-53.76 108.96,-38.88C107.28,-33.52 104.9,-27.72 101.82,-21.48C98.74,-15.24 95.42,-10.1 91.86,-6.06C88.3,-2.02 84.2,1.28 79.56,3.84C70.44,8.8 59.68,11.28 47.28,11.28C37.2,11.28 27.76,8.8 18.96,3.84C10.32,-1.04 5.28,-8.56 3.84,-18.72C3.68,-20.08 3.6,-22.1 3.6,-24.78C3.6,-27.46 4.38,-31.28 5.94,-36.24C7.5,-41.2 10.44,-44.96 14.76,-47.52C16.52,-48.56 17.84,-49.08 18.72,-49.08C20.16,-49.08 20.8,-48.4 20.64,-47.04C20.32,-46.64 19.5,-45.98 18.18,-45.06C16.86,-44.14 15.6,-43.18 14.4,-42.18C13.2,-41.18 12,-39.64 10.8,-37.56C8.72,-34.04 7.68,-30.08 7.68,-25.68C7.68,-15.6 11.12,-7.84 18,-2.4C21.68,0.64 25.8,2.96 30.36,4.56C34.92,6.16 39.48,6.96 44.04,6.96C44.2,6.96 44.4,6.96 44.64,6.96C61.2,6.56 74.8,0.56 85.44,-11.04C92.16,-18.32 101.36,-34.76 113.04,-60.36C117.04,-69.16 119.6,-74.32 120.72,-75.84C106.56,-80.32 93.84,-82.56 82.56,-82.56C71.28,-82.56 62.12,-79.16 55.08,-72.36C49.4,-66.92 46.56,-61.24 46.56,-55.32C46.56,-48.84 49.4,-44.72 55.08,-42.96C57.08,-42.4 58.9,-42.12 60.54,-42.12C62.18,-42.12 64.06,-42.42 66.18,-43.02C68.3,-43.62 70.34,-44.86 72.3,-46.74C74.26,-48.62 75.74,-50.48 76.74,-52.32C77.74,-54.16 78.16,-55.56 78,-56.52L78,-56.76C78.64,-57.32 79.2,-57.5 79.68,-57.3C80.16,-57.1 80.4,-56.6 80.4,-55.8C79.6,-49.56 76.44,-44.88 70.92,-41.76C67.56,-39.76 64.44,-38.76 61.56,-38.76C58.68,-38.76 56.12,-39.16 53.88,-39.96C47.32,-42.28 43.16,-46.72 41.4,-53.28C40.84,-55.36 40.56,-57.4 40.56,-59.4C40.56,-64.2 42.04,-68.88 45,-73.44C50.28,-81.6 58.56,-86.52 69.84,-88.2C72.4,-88.6 74.84,-88.8 77.16,-88.8C79.48,-88.8 82.18,-88.68 85.26,-88.44C88.34,-88.2 92.42,-87.4 97.5,-86.04C102.58,-84.68 107.78,-83.1 113.1,-81.3C118.42,-79.5 121.6,-78.44 122.64,-78.12C126.56,-82.92 129.48,-85.36 131.4,-85.44C131.8,-85.6 132.34,-85.68 133.02,-85.68C133.7,-85.68 134.24,-85.12 134.64,-84C135.04,-82.88 134.76,-82.16 133.8,-81.84C133.4,-81.76 132.88,-81.8 132.24,-81.96C131.76,-82.28 130.78,-81.78 129.3,-80.46C127.82,-79.14 126.72,-78.04 126,-77.16C133.52,-74.76 140.12,-73.02 145.8,-71.94C151.48,-70.86 155.56,-70.32 158.04,-70.32Z" style="fill:black;fill-rule:nonzero;"/>
    </g>
    <g transform="matrix(0.205296,0,0,0.205296,0.260935,20.1636)">
        <path d="M138.72,-45.24C137.36,-45.24 136.28,-45.72 135.48,-46.68C134.68,-47.64 134.36,-48.8 134.52,-50.16C134.76,-51.52 135.44,-52.68 136.56,-53.64C137.68,-54.6 138.92,-55.08 140.28,-55.08C141.64,-55.08 142.74,-54.6 143.58,-53.64C144.42,-52.68 144.72,-51.52 144.48,-50.16C144.24,-48.8 143.56,-47.64 142.44,-46.68C141.32,-45.72 140.08,-45.24 138.72,-45.24ZM130.68,-2.64C132.2,-2.64 133.8,-3.4 135.48,-4.92C138.44,-7.88 142.2,-13.92 146.76,-23.04C147.32,-24.24 147.88,-24.6 148.44,-24.12C148.6,-23.96 148.68,-23.7 148.68,-23.34C148.68,-22.98 148.36,-22.1 147.72,-20.7C147.08,-19.3 146.5,-18.04 145.98,-16.92C145.46,-15.8 144.46,-13.98 142.98,-11.46C141.5,-8.94 140.16,-7 138.96,-5.64C135.68,-1.88 132.58,0 129.66,0C126.74,0 124.64,-0.88 123.36,-2.64C122.08,-4.4 121.44,-6.36 121.44,-8.52C121.44,-10.68 121.96,-13.04 123,-15.6L130.68,-35.16C130.84,-35.64 130.92,-36.28 130.92,-37.08C130.92,-37.88 130.44,-38.92 129.48,-40.2L136.08,-40.32C137.92,-40.32 139,-39.98 139.32,-39.3C139.64,-38.62 139.4,-37.56 138.6,-36.12L129,-13.68C127.64,-10.72 126.96,-8.2 126.96,-6.12C126.96,-3.8 128.2,-2.64 130.68,-2.64Z" style="fill:black;fill-rule:nonzero;"/>
    </g>
    <g transform="matrix(0.205296,0,0,0.205296,0.260935,20.1636)">
        <path d="M203.64,-39.36C193.88,-22 189,-10.8 189,-5.76C189,-3.52 189.76,-2.4 191.28,-2.4C193.2,-2.4 195.4,-3.84 197.88,-6.72C201.64,-11.28 204.92,-16.76 207.72,-23.16C208.2,-24.28 208.68,-24.72 209.16,-24.48C209.64,-24.24 209.88,-23.92 209.88,-23.52C209.88,-23.12 209.48,-22.12 208.68,-20.52C207.88,-18.92 207.24,-17.64 206.76,-16.68C206.28,-15.72 205.22,-13.88 203.58,-11.16C201.94,-8.44 200.54,-6.44 199.38,-5.16C198.22,-3.88 196.74,-2.62 194.94,-1.38C193.14,-0.14 191.1,0.48 188.82,0.48C186.54,0.48 184.6,-0.64 183,-2.88C182.28,-3.92 181.92,-5.34 181.92,-7.14C181.92,-8.94 182.32,-11.12 183.12,-13.68C183.92,-16.24 186.12,-20.4 189.72,-26.16C190.6,-27.6 191.04,-28.74 191.04,-29.58C191.04,-30.42 190.38,-30.84 189.06,-30.84C187.74,-30.84 185.36,-29.24 181.92,-26.04C178.48,-22.84 174.86,-18.52 171.06,-13.08C167.26,-7.64 165,-3.28 164.28,0C162.92,0 161.92,-0.56 161.28,-1.68C160.64,-2.8 160.32,-3.76 160.32,-4.56C160.32,-7.84 162.52,-14.08 166.92,-23.28C168.36,-26.32 169.12,-28.38 169.2,-29.46C169.28,-30.54 169.14,-31.1 168.78,-31.14C168.42,-31.18 167.92,-31.04 167.28,-30.72C165.84,-30 163.64,-28.24 160.68,-25.44C155.08,-20.32 149.56,-12.52 144.12,-2.04C143.72,-1.16 143.22,-0.62 142.62,-0.42C142.02,-0.22 140.84,-0.08 139.08,0C137.32,0.08 136.16,0.28 135.6,0.6C137.04,-2.2 139.56,-7.44 143.16,-15.12C149.64,-28.88 153.96,-36.8 156.12,-38.88C157.08,-39.84 158.4,-40.32 160.08,-40.32C160.4,-40.32 161.22,-40.2 162.54,-39.96C163.86,-39.72 164.84,-39.68 165.48,-39.84C162.52,-38.24 157.68,-30.72 150.96,-17.28C154.72,-21.92 157.42,-24.96 159.06,-26.4C160.7,-27.84 161.92,-28.92 162.72,-29.64C163.52,-30.36 164.14,-30.92 164.58,-31.32C165.02,-31.72 165.66,-32.3 166.5,-33.06C167.34,-33.82 167.98,-34.38 168.42,-34.74C168.86,-35.1 169.48,-35.6 170.28,-36.24C171.08,-36.88 171.7,-37.3 172.14,-37.5C172.58,-37.7 173.18,-38.04 173.94,-38.52C174.7,-39 175.26,-39.24 175.62,-39.24C175.98,-39.24 176.48,-39.34 177.12,-39.54C177.76,-39.74 178.2,-39.68 178.44,-39.36C180.04,-38.72 180.84,-37.72 180.84,-36.36C180.84,-35.16 179.48,-32.08 176.76,-27.12C174.04,-22.16 172.28,-18.88 171.48,-17.28C175,-21.68 178.36,-25.3 181.56,-28.14C184.76,-30.98 188.54,-33.6 192.9,-36C197.26,-38.4 200.44,-39.6 202.44,-39.6C202.92,-39.6 203.32,-39.52 203.64,-39.36Z" style="fill:black;fill-rule:nonzero;"/>
    </g>
    <g transform="matrix(0.110015,0,0,0.110015,42.1986,19.358)">
        <path d="M76.008,-82.617C76.008,-80.602 75.75,-78.633 75.234,-76.711C74.719,-74.789 73.852,-72.914 72.633,-71.086C71.414,-69.258 70.301,-67.699 69.293,-66.41C68.285,-65.121 66.773,-63.574 64.758,-61.77C62.742,-59.965 61.254,-58.664 60.293,-57.867C59.332,-57.07 57.703,-55.781 55.406,-54L75.656,-32.414L98.297,-57.164L108.844,-46.477L86.203,-21.234L108.844,2.883L86.695,2.883L74.18,-10.055C71.93,-7.898 69.773,-6.023 67.711,-4.43C65.648,-2.836 63.082,-1.148 60.012,0.633C56.941,2.414 53.508,3.785 49.711,4.746C45.914,5.707 41.906,6.188 37.688,6.188C29.063,6.188 22.254,3.727 17.262,-1.195C12.27,-6.117 9.773,-12.328 9.773,-19.828C9.773,-23.203 10.301,-26.508 11.355,-29.742C12.41,-32.977 13.641,-35.742 15.047,-38.039C16.453,-40.336 18.258,-42.656 20.461,-45C22.664,-47.344 24.492,-49.137 25.945,-50.379C27.398,-51.621 29.109,-52.992 31.078,-54.492C27.047,-58.664 23.918,-62.602 21.691,-66.305C19.465,-70.008 18.352,-74.227 18.352,-78.961C18.352,-86.367 21.387,-92.414 27.457,-97.102C33.527,-101.789 40.945,-104.133 49.711,-104.133C57.539,-104.133 63.879,-102.094 68.73,-98.016C73.582,-93.938 76.008,-88.805 76.008,-82.617ZM48.516,-88.313C45,-88.313 42.012,-87.293 39.551,-85.254C37.09,-83.215 35.859,-80.906 35.859,-78.328C35.859,-77.672 35.918,-77.051 36.035,-76.465C36.152,-75.879 36.398,-75.246 36.773,-74.566C37.148,-73.887 37.477,-73.324 37.758,-72.879C38.039,-72.434 38.531,-71.824 39.234,-71.051C39.938,-70.277 40.465,-69.691 40.816,-69.293C41.168,-68.895 41.836,-68.203 42.82,-67.219C43.805,-66.234 44.508,-65.531 44.93,-65.109C50.461,-69.328 53.859,-72.094 55.125,-73.406C57.422,-75.75 58.57,-78.07 58.57,-80.367C58.57,-82.43 57.668,-84.27 55.863,-85.887C54.059,-87.504 51.609,-88.313 48.516,-88.313ZM41.977,-43.313C40.008,-41.766 38.461,-40.512 37.336,-39.551C36.211,-38.59 34.922,-37.371 33.469,-35.895C32.016,-34.418 30.902,-33.082 30.129,-31.887C29.355,-30.691 28.688,-29.32 28.125,-27.773C27.563,-26.227 27.281,-24.633 27.281,-22.992C27.281,-19.383 28.641,-16.301 31.359,-13.746C34.078,-11.191 37.523,-9.914 41.695,-9.914C45.633,-9.914 49.348,-10.934 52.84,-12.973C56.332,-15.012 59.859,-17.719 63.422,-21.094L41.977,-43.313Z" style="fill:rgb(175,47,0);fill-rule:nonzero;"/>
    </g>
    <g transform="matrix(2.09637,0,0,2.09637,53.999,20.2257)">
        <g>
            <g>
                <path d="M7.968,-5.34C8.152,-5.34 8.244,-5.224 8.244,-4.992C8.244,-4.744 8.144,-4.512 7.944,-4.296C7.592,-3.904 7.268,-3.412 6.972,-2.82C6.524,-1.924 6.3,-1.116 6.3,-0.396C6.3,-0.116 6.35,0.088 6.45,0.216C6.55,0.344 6.664,0.408 6.792,0.408C7.176,0.408 7.624,0.096 8.136,-0.528C8.592,-1.112 8.94,-1.68 9.18,-2.232C9.244,-2.36 9.308,-2.416 9.372,-2.4C9.436,-2.384 9.44,-2.312 9.384,-2.184C9.056,-1.456 8.684,-0.816 8.268,-0.264C8.052,0.032 7.784,0.278 7.464,0.474C7.144,0.67 6.826,0.768 6.51,0.768C6.194,0.768 5.956,0.642 5.796,0.39C5.636,0.138 5.556,-0.16 5.556,-0.504C5.556,-0.848 5.598,-1.188 5.682,-1.524C5.766,-1.86 5.876,-2.12 6.012,-2.304C5.204,-1.336 4.344,-0.56 3.432,0.024C2.952,0.32 2.42,0.496 1.836,0.552C1.78,0.56 1.686,0.564 1.554,0.564C1.422,0.564 1.264,0.516 1.08,0.42C0.504,0.18 0.216,-0.406 0.216,-1.338C0.216,-2.27 0.52,-3.28 1.128,-4.368C1.448,-4.944 1.8,-5.452 2.184,-5.892C1.648,-6.148 1.248,-6.424 0.984,-6.72C0.792,-6.936 0.696,-7.196 0.696,-7.5C0.696,-7.804 0.756,-7.996 0.876,-8.076C0.956,-8.18 1.028,-8.2 1.092,-8.136C1.14,-8.064 1.142,-7.976 1.098,-7.872C1.054,-7.768 1.032,-7.668 1.032,-7.572C1.032,-7.356 1.148,-7.116 1.38,-6.852C1.612,-6.588 1.952,-6.352 2.4,-6.144C4.28,-8.232 6.232,-9.276 8.256,-9.276C8.888,-9.276 9.39,-9.134 9.762,-8.85C10.134,-8.566 10.32,-8.2 10.32,-7.752C10.32,-7.264 10.048,-6.792 9.504,-6.336C9.232,-6.096 8.844,-5.888 8.34,-5.712C7.572,-5.44 6.658,-5.304 5.598,-5.304C4.538,-5.304 3.66,-5.416 2.964,-5.64C2.156,-4.496 1.6,-3.546 1.296,-2.79C0.992,-2.034 0.84,-1.448 0.84,-1.032C0.84,-0.944 0.844,-0.864 0.852,-0.792C0.948,-0.128 1.284,0.204 1.86,0.204C2.508,0.204 3.26,-0.148 4.116,-0.852C4.724,-1.364 5.32,-1.972 5.904,-2.676C6.488,-3.38 6.922,-4 7.206,-4.536C7.49,-5.072 7.744,-5.34 7.968,-5.34ZM9.828,-7.896C9.828,-8.24 9.686,-8.504 9.402,-8.688C9.118,-8.872 8.728,-8.964 8.232,-8.964C7.736,-8.964 7.242,-8.884 6.75,-8.724C6.258,-8.564 5.798,-8.328 5.37,-8.016C4.942,-7.704 4.562,-7.384 4.23,-7.056C3.898,-6.728 3.54,-6.336 3.156,-5.88C3.756,-5.688 4.492,-5.592 5.364,-5.592C7.004,-5.592 8.2,-5.856 8.952,-6.384C9.536,-6.792 9.828,-7.296 9.828,-7.896Z" style="fill:black;fill-rule:nonzero;"/>
                <path d="M12.852,-3.936C11.868,-2.208 11.376,-1.08 11.376,-0.552C11.376,-0.344 11.452,-0.24 11.604,-0.24C12.012,-0.24 12.56,-0.932 13.248,-2.316C13.296,-2.428 13.344,-2.472 13.392,-2.448C13.44,-2.424 13.464,-2.392 13.464,-2.352C13.464,-2.312 13.448,-2.264 13.416,-2.208C12.992,-1.352 12.634,-0.762 12.342,-0.438C12.05,-0.114 11.758,0.048 11.466,0.048C11.174,0.048 10.952,-0.064 10.8,-0.288C10.72,-0.392 10.68,-0.534 10.68,-0.714C10.68,-0.894 10.72,-1.112 10.8,-1.368C10.88,-1.624 11.1,-2.04 11.46,-2.616C11.548,-2.76 11.592,-2.874 11.592,-2.958C11.592,-3.042 11.524,-3.084 11.388,-3.084C11.252,-3.084 10.992,-2.904 10.608,-2.544C10.032,-2.016 9.476,-1.224 8.94,-0.168C8.892,-0.088 8.838,-0.038 8.778,-0.018C8.718,0.002 8.6,0.016 8.424,0.024C8.248,0.032 8.132,0.052 8.076,0.084C8.204,-0.172 8.456,-0.696 8.832,-1.488C9.504,-2.888 9.944,-3.688 10.152,-3.888C10.248,-3.984 10.38,-4.032 10.548,-4.032C10.58,-4.032 10.662,-4.02 10.794,-3.996C10.926,-3.972 11.024,-3.968 11.088,-3.984C10.792,-3.824 10.308,-3.072 9.636,-1.728C10.012,-2.192 10.354,-2.562 10.662,-2.838C10.97,-3.114 11.34,-3.37 11.772,-3.606C12.204,-3.842 12.52,-3.96 12.72,-3.96C12.768,-3.96 12.812,-3.952 12.852,-3.936Z" style="fill:black;fill-rule:nonzero;"/>
                <path d="M16.872,-3.936C15.888,-2.208 15.396,-1.08 15.396,-0.552C15.396,-0.344 15.472,-0.24 15.624,-0.24C16.032,-0.24 16.58,-0.932 17.268,-2.316C17.316,-2.428 17.364,-2.472 17.412,-2.448C17.46,-2.424 17.484,-2.392 17.484,-2.352C17.484,-2.312 17.468,-2.264 17.436,-2.208C17.012,-1.352 16.654,-0.762 16.362,-0.438C16.07,-0.114 15.778,0.048 15.486,0.048C15.194,0.048 14.972,-0.064 14.82,-0.288C14.74,-0.392 14.7,-0.534 14.7,-0.714C14.7,-0.894 14.74,-1.112 14.82,-1.368C14.9,-1.624 15.12,-2.04 15.48,-2.616C15.568,-2.76 15.612,-2.874 15.612,-2.958C15.612,-3.042 15.544,-3.084 15.408,-3.084C15.272,-3.084 15.012,-2.904 14.628,-2.544C14.052,-2.016 13.496,-1.224 12.96,-0.168C12.912,-0.088 12.858,-0.038 12.798,-0.018C12.738,0.002 12.62,0.016 12.444,0.024C12.268,0.032 12.152,0.052 12.096,0.084C12.224,-0.172 12.476,-0.696 12.852,-1.488C13.524,-2.888 13.964,-3.688 14.172,-3.888C14.268,-3.984 14.4,-4.032 14.568,-4.032C14.6,-4.032 14.682,-4.02 14.814,-3.996C14.946,-3.972 15.044,-3.968 15.108,-3.984C14.812,-3.824 14.328,-3.072 13.656,-1.728C14.032,-2.192 14.374,-2.562 14.682,-2.838C14.99,-3.114 15.36,-3.37 15.792,-3.606C16.224,-3.842 16.54,-3.96 16.74,-3.96C16.788,-3.96 16.832,-3.952 16.872,-3.936Z" style="fill:black;fill-rule:nonzero;"/>
                <path d="M17.796,-1.848C17.684,-1.576 17.628,-1.272 17.628,-0.936C17.628,-0.712 17.678,-0.534 17.778,-0.402C17.878,-0.27 18.02,-0.204 18.204,-0.204C18.932,-0.204 19.592,-0.888 20.184,-2.256C20.24,-2.384 20.308,-2.44 20.388,-2.424C20.42,-2.416 20.436,-2.396 20.436,-2.364C20.436,-2.332 20.346,-2.122 20.166,-1.734C19.986,-1.346 19.804,-1.032 19.62,-0.792C19.212,-0.232 18.708,0.048 18.108,0.048C17.788,0.048 17.516,-0.056 17.292,-0.264C17.068,-0.472 16.956,-0.756 16.956,-1.116C16.956,-1.476 17.042,-1.858 17.214,-2.262C17.386,-2.666 17.62,-3.042 17.916,-3.39C18.212,-3.738 18.552,-3.992 18.936,-4.152C19.12,-4.232 19.296,-4.272 19.464,-4.272C19.632,-4.272 19.788,-4.224 19.932,-4.128C20.068,-4.016 20.136,-3.892 20.136,-3.756C20.136,-3.276 19.848,-2.816 19.272,-2.376C19.096,-2.24 18.848,-2.118 18.528,-2.01C18.208,-1.902 17.964,-1.848 17.796,-1.848ZM19.812,-3.768C19.812,-3.928 19.748,-4.008 19.62,-4.008C19.396,-4.008 19.056,-3.732 18.6,-3.18C18.328,-2.844 18.088,-2.468 17.88,-2.052C18.016,-2.052 18.214,-2.1 18.474,-2.196C18.734,-2.292 18.96,-2.42 19.152,-2.58C19.592,-2.956 19.812,-3.352 19.812,-3.768Z" style="fill:black;fill-rule:nonzero;"/>
                <path d="M20.46,-4.68C20.46,-4.728 20.492,-4.764 20.556,-4.788C20.796,-4.876 21.002,-5.008 21.174,-5.184C21.346,-5.36 21.448,-5.576 21.48,-5.832C21.36,-5.752 21.238,-5.712 21.114,-5.712C20.99,-5.712 20.892,-5.756 20.82,-5.844C20.748,-5.932 20.712,-6.008 20.712,-6.072C20.712,-6.136 20.72,-6.21 20.736,-6.294C20.752,-6.378 20.816,-6.468 20.928,-6.564C21.04,-6.66 21.17,-6.708 21.318,-6.708C21.466,-6.708 21.582,-6.642 21.666,-6.51C21.75,-6.378 21.792,-6.224 21.792,-6.048C21.792,-5.696 21.67,-5.402 21.426,-5.166C21.182,-4.93 20.904,-4.76 20.592,-4.656C20.568,-4.648 20.54,-4.644 20.508,-4.644C20.476,-4.644 20.46,-4.656 20.46,-4.68Z" style="fill:black;fill-rule:nonzero;"/>
                <path d="M23.148,-0.228C23.252,-0.212 23.324,-0.204 23.364,-0.204C23.684,-0.204 24,-0.392 24.312,-0.768C24.48,-0.976 24.78,-1.5 25.212,-2.34C25.228,-2.38 25.256,-2.4 25.296,-2.4C25.368,-2.408 25.404,-2.38 25.404,-2.316C25.404,-2.3 25.386,-2.254 25.35,-2.178C25.314,-2.102 25.28,-2.026 25.248,-1.95C25.216,-1.874 25.164,-1.764 25.092,-1.62C25.02,-1.476 24.958,-1.36 24.906,-1.272C24.854,-1.184 24.788,-1.076 24.708,-0.948C24.628,-0.82 24.548,-0.72 24.468,-0.648L24.216,-0.384C24.08,-0.248 23.92,-0.152 23.736,-0.096C23.44,0 23.152,0.008 22.872,-0.072C22.688,0.008 22.524,0.048 22.38,0.048C21.812,0.048 21.468,-0.176 21.348,-0.624C21.324,-0.728 21.312,-0.854 21.312,-1.002C21.312,-1.15 21.362,-1.292 21.462,-1.428C21.562,-1.564 21.668,-1.636 21.78,-1.644C22.188,-2.42 22.536,-3.12 22.824,-3.744C23.144,-4.424 23.516,-4.764 23.94,-4.764C24.052,-4.764 24.162,-4.738 24.27,-4.686C24.378,-4.634 24.418,-4.576 24.39,-4.512C24.362,-4.448 24.304,-4.436 24.216,-4.476C24.128,-4.516 24.052,-4.536 23.988,-4.536C23.924,-4.536 23.868,-4.524 23.82,-4.5C23.548,-4.372 23.412,-4.096 23.412,-3.672C23.412,-3.448 23.444,-3.264 23.508,-3.12C23.572,-2.976 23.644,-2.82 23.724,-2.652C23.908,-2.236 24,-1.896 24,-1.632C24,-1.368 23.916,-1.108 23.748,-0.852C23.58,-0.596 23.38,-0.388 23.148,-0.228ZM22.74,-0.312C23.092,-0.584 23.268,-1.024 23.268,-1.632C23.268,-1.88 23.24,-2.22 23.184,-2.652C23.128,-3.084 23.1,-3.376 23.1,-3.528C23.1,-3.68 23.104,-3.784 23.112,-3.84C22.504,-2.624 22.128,-1.884 21.984,-1.62C22.152,-1.62 22.236,-1.5 22.236,-1.26C22.236,-0.788 22.404,-0.472 22.74,-0.312ZM21.84,-0.636C21.84,-0.588 21.844,-0.536 21.852,-0.48C21.916,-0.264 22.064,-0.156 22.296,-0.156C22.392,-0.156 22.472,-0.172 22.536,-0.204C22.24,-0.388 22.08,-0.688 22.056,-1.104C21.912,-0.96 21.84,-0.804 21.84,-0.636Z" style="fill:black;fill-rule:nonzero;"/>
            </g>
        </g>
    </g>
    <g transform="matrix(1.43985,0,0,1.43985,-67.053,4.38655)">
        <g transform="matrix(1,0,0,1,120.188,11.415)">
            <path d="M0.82,-8.326L2.379,-8.326L4.295,-1.928L6.703,-8.326L8.063,-8.326L10.043,-1.928L12.387,-8.326L13.945,-8.326L10.752,0L9.34,0L7.336,-6.369L4.98,0L3.568,0L0.82,-8.326Z" style="fill:rgb(175,47,0);fill-rule:nonzero;"/>
        </g>
        <g>
            <g transform="matrix(1,0,0,1,132.995,11.415)">
                <path d="M1.699,0L1.699,-8.326L7.541,-8.326L7.541,-6.967L3.182,-6.967L3.182,-4.969L7.219,-4.969L7.219,-3.609L3.182,-3.609L3.182,-1.359L7.541,-1.359L7.541,0L1.699,0Z" style="fill:rgb(175,47,0);fill-rule:nonzero;"/>
            </g>
            <g transform="matrix(1,0,0,1,139.674,11.415)">
                <path d="M4.74,-6.967L3.223,-6.967L3.223,-1.359L4.295,-1.359C4.564,-1.359 4.787,-1.363 4.963,-1.371C5.139,-1.379 5.369,-1.406 5.654,-1.453C5.939,-1.5 6.183,-1.565 6.384,-1.649C6.585,-1.733 6.794,-1.86 7.011,-2.03C7.228,-2.2 7.408,-2.406 7.553,-2.648C7.818,-3.094 7.951,-3.615 7.951,-4.213C7.951,-4.557 7.903,-4.873 7.808,-5.162C7.712,-5.451 7.585,-5.694 7.427,-5.892C7.269,-6.089 7.083,-6.262 6.87,-6.41C6.657,-6.559 6.441,-6.674 6.223,-6.756C6.004,-6.838 5.779,-6.895 5.549,-6.926C5.354,-6.953 5.084,-6.967 4.74,-6.967ZM4.699,-8.326C5.223,-8.326 5.705,-8.285 6.146,-8.203C6.588,-8.121 6.969,-8.01 7.289,-7.869C7.609,-7.729 7.895,-7.559 8.145,-7.359C8.395,-7.16 8.6,-6.947 8.76,-6.721C8.92,-6.494 9.052,-6.248 9.155,-5.982C9.259,-5.717 9.331,-5.456 9.372,-5.2C9.413,-4.944 9.434,-4.68 9.434,-4.406C9.434,-4.047 9.404,-3.7 9.346,-3.366C9.287,-3.032 9.184,-2.692 9.035,-2.347C8.887,-2.001 8.696,-1.69 8.464,-1.415C8.231,-1.14 7.929,-0.892 7.556,-0.671C7.183,-0.45 6.756,-0.287 6.275,-0.182C6.029,-0.127 5.756,-0.085 5.455,-0.056C5.154,-0.026 4.907,-0.01 4.714,-0.006C4.521,-0.002 4.25,0 3.902,0L1.746,0L1.746,-8.326L4.699,-8.326Z" style="fill:rgb(175,47,0);fill-rule:nonzero;"/>
                <path d="M13.311,-6.967L11.794,-6.967L11.794,-1.359L12.866,-1.359C13.136,-1.359 13.358,-1.363 13.534,-1.371C13.71,-1.379 13.94,-1.406 14.225,-1.453C14.511,-1.5 14.754,-1.565 14.955,-1.649C15.156,-1.733 15.365,-1.86 15.582,-2.03C15.799,-2.2 15.979,-2.406 16.124,-2.648C16.389,-3.094 16.522,-3.615 16.522,-4.213C16.522,-4.557 16.474,-4.873 16.379,-5.162C16.283,-5.451 16.156,-5.694 15.998,-5.892C15.84,-6.089 15.654,-6.262 15.441,-6.41C15.228,-6.559 15.013,-6.674 14.794,-6.756C14.575,-6.838 14.35,-6.895 14.12,-6.926C13.925,-6.953 13.655,-6.967 13.311,-6.967ZM13.27,-8.326C13.794,-8.326 14.276,-8.285 14.718,-8.203C15.159,-8.121 15.54,-8.01 15.86,-7.869C16.18,-7.729 16.466,-7.559 16.716,-7.359C16.966,-7.16 17.171,-6.947 17.331,-6.721C17.491,-6.494 17.623,-6.248 17.726,-5.982C17.83,-5.717 17.902,-5.456 17.943,-5.2C17.984,-4.944 18.005,-4.68 18.005,-4.406C18.005,-4.047 17.975,-3.7 17.917,-3.366C17.858,-3.032 17.755,-2.692 17.606,-2.347C17.458,-2.001 17.267,-1.69 17.035,-1.415C16.803,-1.14 16.5,-0.892 16.127,-0.671C15.754,-0.45 15.327,-0.287 14.846,-0.182C14.6,-0.127 14.327,-0.085 14.026,-0.056C13.725,-0.026 13.478,-0.01 13.285,-0.006C13.092,-0.002 12.821,0 12.473,0L10.317,0L10.317,-8.326L13.27,-8.326Z" style="fill:rgb(175,47,0);fill-rule:nonzero;"/>
                <rect x="19.017" y="-8.326" width="1.477" height="8.326" style="fill:rgb(175,47,0);"/>
                <path d="M21.799,-8.326L23.428,-8.326L28.075,-1.928L28.075,-8.326L29.551,-8.326L29.551,0L27.905,0L23.276,-6.41L23.276,0L21.799,0L21.799,-8.326Z" style="fill:rgb(175,47,0);fill-rule:nonzero;"/>
                <path d="M38.386,-1.207C37.577,-0.324 36.421,0.117 34.917,0.117C34.277,0.117 33.692,0.034 33.162,-0.132C32.633,-0.298 32.191,-0.519 31.835,-0.794C31.48,-1.069 31.18,-1.393 30.936,-1.764C30.692,-2.135 30.515,-2.521 30.405,-2.921C30.296,-3.321 30.241,-3.732 30.241,-4.154C30.241,-4.596 30.302,-5.021 30.423,-5.432C30.544,-5.842 30.733,-6.227 30.988,-6.586C31.244,-6.945 31.553,-7.259 31.914,-7.526C32.276,-7.794 32.712,-8.005 33.224,-8.159C33.736,-8.313 34.294,-8.391 34.9,-8.391C36.005,-8.391 36.999,-8.145 37.882,-7.652L38.087,-7.535L37.472,-6.375L37.261,-6.486C36.984,-6.627 36.636,-6.753 36.218,-6.864C35.8,-6.976 35.38,-7.031 34.958,-7.031C34.544,-7.031 34.144,-6.967 33.757,-6.838C33.37,-6.709 33.026,-6.527 32.723,-6.293C32.42,-6.059 32.178,-5.761 31.996,-5.399C31.815,-5.038 31.724,-4.643 31.724,-4.213C31.724,-3.646 31.872,-3.137 32.169,-2.684C32.466,-2.23 32.877,-1.878 33.403,-1.626C33.928,-1.374 34.519,-1.248 35.175,-1.248C35.894,-1.248 36.482,-1.41 36.939,-1.734L36.939,-3.334L34.331,-3.334L34.331,-4.635L38.386,-4.635L38.386,-1.207Z" style="fill:rgb(175,47,0);fill-rule:nonzero;"/>
            </g>
        </g>
    </g>
</svg>
