<?xml version="1.0" standalone="no"?>
<!DOCTYPE svg PUBLIC "-//W3C//DTD SVG 1.1//EN" "http://www.w3.org/Graphics/SVG/1.1/DTD/svg11.dtd">
<svg width="100%" height="100%" viewBox="0 0 1000 526" version="1.1" xmlns="http://www.w3.org/2000/svg" xmlns:xlink="http://www.w3.org/1999/xlink" xml:space="preserve" style="fill-rule:evenodd;clip-rule:evenodd;stroke-linejoin:round;stroke-miterlimit:1.41421;">
    <g transform="matrix(1.51499,0,0,1.51499,-3.45396,240.817)">
        <path d="M158.04,-70.32C163,-70.32 165.48,-71.52 165.48,-73.92C165.48,-75.12 165.9,-75.72 166.74,-75.72C167.58,-75.72 168,-74.74 168,-72.78C168,-70.82 166.88,-69.32 164.64,-68.28C162.4,-67.24 160.42,-66.72 158.7,-66.72C156.98,-66.72 155.56,-66.8 154.44,-66.96C142.68,-68.48 132.6,-71.04 124.2,-74.64C118.52,-65.68 113.44,-53.76 108.96,-38.88C107.28,-33.52 104.9,-27.72 101.82,-21.48C98.74,-15.24 95.42,-10.1 91.86,-6.06C88.3,-2.02 84.2,1.28 79.56,3.84C70.44,8.8 59.68,11.28 47.28,11.28C37.2,11.28 27.76,8.8 18.96,3.84C10.32,-1.04 5.28,-8.56 3.84,-18.72C3.68,-20.08 3.6,-22.1 3.6,-24.78C3.6,-27.46 4.38,-31.28 5.94,-36.24C7.5,-41.2 10.44,-44.96 14.76,-47.52C16.52,-48.56 17.84,-49.08 18.72,-49.08C20.16,-49.08 20.8,-48.4 20.64,-47.04C20.32,-46.64 19.5,-45.98 18.18,-45.06C16.86,-44.14 15.6,-43.18 14.4,-42.18C13.2,-41.18 12,-39.64 10.8,-37.56C8.72,-34.04 7.68,-30.08 7.68,-25.68C7.68,-15.6 11.12,-7.84 18,-2.4C21.68,0.64 25.8,2.96 30.36,4.56C34.92,6.16 39.48,6.96 44.04,6.96C44.2,6.96 44.4,6.96 44.64,6.96C61.2,6.56 74.8,0.56 85.44,-11.04C92.16,-18.32 101.36,-34.76 113.04,-60.36C117.04,-69.16 119.6,-74.32 120.72,-75.84C106.56,-80.32 93.84,-82.56 82.56,-82.56C71.28,-82.56 62.12,-79.16 55.08,-72.36C49.4,-66.92 46.56,-61.24 46.56,-55.32C46.56,-48.84 49.4,-44.72 55.08,-42.96C57.08,-42.4 58.9,-42.12 60.54,-42.12C62.18,-42.12 64.06,-42.42 66.18,-43.02C68.3,-43.62 70.34,-44.86 72.3,-46.74C74.26,-48.62 75.74,-50.48 76.74,-52.32C77.74,-54.16 78.16,-55.56 78,-56.52L78,-56.76C78.64,-57.32 79.2,-57.5 79.68,-57.3C80.16,-57.1 80.4,-56.6 80.4,-55.8C79.6,-49.56 76.44,-44.88 70.92,-41.76C67.56,-39.76 64.44,-38.76 61.56,-38.76C58.68,-38.76 56.12,-39.16 53.88,-39.96C47.32,-42.28 43.16,-46.72 41.4,-53.28C40.84,-55.36 40.56,-57.4 40.56,-59.4C40.56,-64.2 42.04,-68.88 45,-73.44C50.28,-81.6 58.56,-86.52 69.84,-88.2C72.4,-88.6 74.84,-88.8 77.16,-88.8C79.48,-88.8 82.18,-88.68 85.26,-88.44C88.34,-88.2 92.42,-87.4 97.5,-86.04C102.58,-84.68 107.78,-83.1 113.1,-81.3C118.42,-79.5 121.6,-78.44 122.64,-78.12C126.56,-82.92 129.48,-85.36 131.4,-85.44C131.8,-85.6 132.34,-85.68 133.02,-85.68C133.7,-85.68 134.24,-85.12 134.64,-84C135.04,-82.88 134.76,-82.16 133.8,-81.84C133.4,-81.76 132.88,-81.8 132.24,-81.96C131.76,-82.28 130.78,-81.78 129.3,-80.46C127.82,-79.14 126.72,-78.04 126,-77.16C133.52,-74.76 140.12,-73.02 145.8,-71.94C151.48,-70.86 155.56,-70.32 158.04,-70.32Z" style="fill:black;fill-rule:nonzero;"/>
    </g>
    <g transform="matrix(1.51499,0,0,1.51499,-3.45396,240.817)">
        <path d="M138.72,-45.24C137.36,-45.24 136.28,-45.72 135.48,-46.68C134.68,-47.64 134.36,-48.8 134.52,-50.16C134.76,-51.52 135.44,-52.68 136.56,-53.64C137.68,-54.6 138.92,-55.08 140.28,-55.08C141.64,-55.08 142.74,-54.6 143.58,-53.64C144.42,-52.68 144.72,-51.52 144.48,-50.16C144.24,-48.8 143.56,-47.64 142.44,-46.68C141.32,-45.72 140.08,-45.24 138.72,-45.24ZM130.68,-2.64C132.2,-2.64 133.8,-3.4 135.48,-4.92C138.44,-7.88 142.2,-13.92 146.76,-23.04C147.32,-24.24 147.88,-24.6 148.44,-24.12C148.6,-23.96 148.68,-23.7 148.68,-23.34C148.68,-22.98 148.36,-22.1 147.72,-20.7C147.08,-19.3 146.5,-18.04 145.98,-16.92C145.46,-15.8 144.46,-13.98 142.98,-11.46C141.5,-8.94 140.16,-7 138.96,-5.64C135.68,-1.88 132.58,0 129.66,0C126.74,0 124.64,-0.88 123.36,-2.64C122.08,-4.4 121.44,-6.36 121.44,-8.52C121.44,-10.68 121.96,-13.04 123,-15.6L130.68,-35.16C130.84,-35.64 130.92,-36.28 130.92,-37.08C130.92,-37.88 130.44,-38.92 129.48,-40.2L136.08,-40.32C137.92,-40.32 139,-39.98 139.32,-39.3C139.64,-38.62 139.4,-37.56 138.6,-36.12L129,-13.68C127.64,-10.72 126.96,-8.2 126.96,-6.12C126.96,-3.8 128.2,-2.64 130.68,-2.64Z" style="fill:black;fill-rule:nonzero;"/>
    </g>
    <g transform="matrix(1.51499,0,0,1.51499,-3.45396,240.817)">
        <path d="M203.64,-39.36C193.88,-22 189,-10.8 189,-5.76C189,-3.52 189.76,-2.4 191.28,-2.4C193.2,-2.4 195.4,-3.84 197.88,-6.72C201.64,-11.28 204.92,-16.76 207.72,-23.16C208.2,-24.28 208.68,-24.72 209.16,-24.48C209.64,-24.24 209.88,-23.92 209.88,-23.52C209.88,-23.12 209.48,-22.12 208.68,-20.52C207.88,-18.92 207.24,-17.64 206.76,-16.68C206.28,-15.72 205.22,-13.88 203.58,-11.16C201.94,-8.44 200.54,-6.44 199.38,-5.16C198.22,-3.88 196.74,-2.62 194.94,-1.38C193.14,-0.14 191.1,0.48 188.82,0.48C186.54,0.48 184.6,-0.64 183,-2.88C182.28,-3.92 181.92,-5.34 181.92,-7.14C181.92,-8.94 182.32,-11.12 183.12,-13.68C183.92,-16.24 186.12,-20.4 189.72,-26.16C190.6,-27.6 191.04,-28.74 191.04,-29.58C191.04,-30.42 190.38,-30.84 189.06,-30.84C187.74,-30.84 185.36,-29.24 181.92,-26.04C178.48,-22.84 174.86,-18.52 171.06,-13.08C167.26,-7.64 165,-3.28 164.28,0C162.92,0 161.92,-0.56 161.28,-1.68C160.64,-2.8 160.32,-3.76 160.32,-4.56C160.32,-7.84 162.52,-14.08 166.92,-23.28C168.36,-26.32 169.12,-28.38 169.2,-29.46C169.28,-30.54 169.14,-31.1 168.78,-31.14C168.42,-31.18 167.92,-31.04 167.28,-30.72C165.84,-30 163.64,-28.24 160.68,-25.44C155.08,-20.32 149.56,-12.52 144.12,-2.04C143.72,-1.16 143.22,-0.62 142.62,-0.42C142.02,-0.22 140.84,-0.08 139.08,0C137.32,0.08 136.16,0.28 135.6,0.6C137.04,-2.2 139.56,-7.44 143.16,-15.12C149.64,-28.88 153.96,-36.8 156.12,-38.88C157.08,-39.84 158.4,-40.32 160.08,-40.32C160.4,-40.32 161.22,-40.2 162.54,-39.96C163.86,-39.72 164.84,-39.68 165.48,-39.84C162.52,-38.24 157.68,-30.72 150.96,-17.28C154.72,-21.92 157.42,-24.96 159.06,-26.4C160.7,-27.84 161.92,-28.92 162.72,-29.64C163.52,-30.36 164.14,-30.92 164.58,-31.32C165.02,-31.72 165.66,-32.3 166.5,-33.06C167.34,-33.82 167.98,-34.38 168.42,-34.74C168.86,-35.1 169.48,-35.6 170.28,-36.24C171.08,-36.88 171.7,-37.3 172.14,-37.5C172.58,-37.7 173.18,-38.04 173.94,-38.52C174.7,-39 175.26,-39.24 175.62,-39.24C175.98,-39.24 176.48,-39.34 177.12,-39.54C177.76,-39.74 178.2,-39.68 178.44,-39.36C180.04,-38.72 180.84,-37.72 180.84,-36.36C180.84,-35.16 179.48,-32.08 176.76,-27.12C174.04,-22.16 172.28,-18.88 171.48,-17.28C175,-21.68 178.36,-25.3 181.56,-28.14C184.76,-30.98 188.54,-33.6 192.9,-36C197.26,-38.4 200.44,-39.6 202.44,-39.6C202.92,-39.6 203.32,-39.52 203.64,-39.36Z" style="fill:black;fill-rule:nonzero;"/>
    </g>
    <g transform="matrix(1.51499,0,0,1.51499,-3.45396,240.817)">
        <path d="M338.7,4.92C334.02,4.92 329.52,2.66 325.2,-1.86C320.88,-6.38 317.28,-12.84 314.4,-21.24C311.52,-29.64 309.52,-37.16 308.4,-43.8C305.84,-38.68 303.84,-34.78 302.4,-32.1C300.96,-29.42 298.84,-26 296.04,-21.84C293.24,-17.68 290.32,-13.92 287.28,-10.56C277.84,-0.4 267.16,4.68 255.24,4.68C244.44,4.68 237.72,1.76 235.08,-4.08C234.44,-5.44 234.12,-7.02 234.12,-8.82C234.12,-10.62 235.04,-12.56 236.88,-14.64C239.84,-17.92 243.92,-19.56 249.12,-19.56C252.64,-19.56 256.36,-18.88 260.28,-17.52C261.32,-17.12 261.72,-16.68 261.48,-16.2C261.24,-15.72 260.2,-15.84 258.36,-16.56C256.52,-17.28 254.3,-17.64 251.7,-17.64C249.1,-17.64 246.86,-16.64 244.98,-14.64C243.1,-12.64 242.16,-10.56 242.16,-8.4C242.16,-7.44 242.36,-6.4 242.76,-5.28C244.36,-1.12 248.12,0.96 254.04,0.96C260.6,0.96 266.4,-1 271.44,-4.92C274.32,-7.16 276.92,-9.44 279.24,-11.76C281.56,-14.08 284.04,-17.2 286.68,-21.12C290.84,-27.12 294.38,-32.7 297.3,-37.86C300.22,-43.02 303.38,-48.66 306.78,-54.78C310.18,-60.9 312.68,-65.36 314.28,-68.16C319.4,-76.88 324.08,-83.56 328.32,-88.2C323.84,-88.6 319.36,-88.8 314.88,-88.8C304.64,-88.8 294.46,-87.74 284.34,-85.62C274.22,-83.5 266.2,-80 260.28,-75.12C252.84,-68.96 249.12,-62.4 249.12,-55.44C249.12,-52.08 250.32,-49.1 252.72,-46.5C255.12,-43.9 258.36,-42.6 262.44,-42.6C267.4,-42.6 271.52,-44.36 274.8,-47.88C278.08,-51.4 279.8,-54.2 279.96,-56.28C280.04,-57.32 280.28,-57.84 280.68,-57.84C281.32,-57.84 281.6,-57.24 281.52,-56.04C280.96,-52.2 279.4,-48.96 276.84,-46.32C272.36,-41.68 267,-39.36 260.76,-39.36C256.04,-39.36 251.94,-40.96 248.46,-44.16C244.98,-47.36 243.24,-51.64 243.24,-57C243.24,-64.92 247.1,-72.02 254.82,-78.3C262.54,-84.58 272.68,-88.64 285.24,-90.48C294.2,-91.76 302.46,-92.4 310.02,-92.4C317.58,-92.4 324.56,-91.96 330.96,-91.08C333.04,-93.32 334.48,-94.44 335.28,-94.44C335.76,-94.44 336,-94.06 336,-93.3C336,-92.54 335.8,-91.6 335.4,-90.48C341.32,-89.52 345.28,-88.76 347.28,-88.2C359.28,-84.68 365.28,-79.24 365.28,-71.88C365.28,-67.16 362.36,-62.48 356.52,-57.84C349.16,-52.16 339.32,-48.32 327,-46.32C323.48,-45.76 319.8,-45.4 315.96,-45.24C318.52,-31.08 322.96,-19.16 329.28,-9.48C331.44,-6.2 333.42,-3.82 335.22,-2.34C337.02,-0.86 338.96,-0.12 341.04,-0.12C343.92,-0.12 346.98,-1.72 350.22,-4.92C353.46,-8.12 357.2,-13.96 361.44,-22.44C362.08,-23.64 362.72,-24.24 363.36,-24.24C364,-24.24 364.04,-23.64 363.48,-22.44C358.84,-12.04 354.72,-4.88 351.12,-0.96C347.52,2.96 343.38,4.92 338.7,4.92ZM356.64,-73.68C356.64,-74.32 356.56,-74.96 356.4,-75.6C355.52,-80.08 351.96,-83.28 345.72,-85.2C343.8,-85.76 339.88,-86.52 333.96,-87.48C332.52,-85 329,-79.2 323.4,-70.08C317.8,-60.96 313.64,-53.72 310.92,-48.36C312.68,-48.68 315.26,-48.98 318.66,-49.26C322.06,-49.54 324.52,-49.76 326.04,-49.92C335.16,-51.04 342.92,-54.6 349.32,-60.6C354.2,-65.08 356.64,-69.44 356.64,-73.68Z" style="fill:black;fill-rule:nonzero;"/>
    </g>
    <g transform="matrix(1.51499,0,0,1.51499,-3.45396,240.817)">
        <path d="M366.96,-18.48C365.84,-15.76 365.28,-12.72 365.28,-9.36C365.28,-7.12 365.78,-5.34 366.78,-4.02C367.78,-2.7 369.2,-2.04 371.04,-2.04C378.32,-2.04 384.92,-8.88 390.84,-22.56C391.4,-23.84 392.08,-24.4 392.88,-24.24C393.2,-24.16 393.36,-23.96 393.36,-23.64C393.36,-23.32 392.46,-21.22 390.66,-17.34C388.86,-13.46 387.04,-10.32 385.2,-7.92C381.12,-2.32 376.08,0.48 370.08,0.48C366.88,0.48 364.16,-0.56 361.92,-2.64C359.68,-4.72 358.56,-7.56 358.56,-11.16C358.56,-14.76 359.42,-18.58 361.14,-22.62C362.86,-26.66 365.2,-30.42 368.16,-33.9C371.12,-37.38 374.52,-39.92 378.36,-41.52C380.2,-42.32 381.96,-42.72 383.64,-42.72C385.32,-42.72 386.88,-42.24 388.32,-41.28C389.68,-40.16 390.36,-38.92 390.36,-37.56C390.36,-32.76 387.48,-28.16 381.72,-23.76C379.96,-22.4 377.48,-21.18 374.28,-20.1C371.08,-19.02 368.64,-18.48 366.96,-18.48ZM387.12,-37.68C387.12,-39.28 386.48,-40.08 385.2,-40.08C382.96,-40.08 379.56,-37.32 375,-31.8C372.28,-28.44 369.88,-24.68 367.8,-20.52C369.16,-20.52 371.14,-21 373.74,-21.96C376.34,-22.92 378.6,-24.2 380.52,-25.8C384.92,-29.56 387.12,-33.52 387.12,-37.68Z" style="fill:black;fill-rule:nonzero;"/>
    </g>
    <g transform="matrix(1.51499,0,0,1.51499,-3.45396,240.817)">
        <path d="M421.56,-22.74C418.92,-17.66 417.34,-13.86 416.82,-11.34C416.3,-8.82 416.04,-6.78 416.04,-5.22C416.04,-3.66 416.64,-2.88 417.84,-2.88C419.36,-2.88 421.24,-4.28 423.48,-7.08C426.76,-11.16 430,-16.48 433.2,-23.04C433.52,-23.76 433.88,-24.16 434.28,-24.24C434.92,-24.48 435.24,-24.24 435.24,-23.52C435.24,-23.12 435.12,-22.64 434.88,-22.08C427.52,-7.2 421.32,0.24 416.28,0.24C413.96,0.24 412.08,-0.88 410.64,-3.12C409.92,-4.32 409.56,-5.92 409.56,-7.92C409.56,-9.92 409.96,-12.36 410.76,-15.24C404.36,-4.92 398.84,0.24 394.2,0.24C392.92,0.24 391.76,-0.16 390.72,-0.96C388.32,-2.64 387.12,-5.52 387.12,-9.6C387.12,-17.44 390.52,-25.4 397.32,-33.48C401.16,-37.96 405.88,-40.88 411.48,-42.24C413,-42.64 414.44,-42.84 415.8,-42.84C419.48,-42.84 422.6,-41.56 425.16,-39C425.96,-38.12 426.2,-37.28 425.88,-36.48C425.56,-35.68 424.88,-35.36 423.84,-35.52C422.96,-38.4 421.04,-39.84 418.08,-39.84C414.64,-39.84 410.4,-37.12 405.36,-31.68C402.48,-28.48 399.8,-24.72 397.32,-20.4C394.2,-15.2 392.64,-11.04 392.64,-7.92C392.64,-4.8 393.64,-3.24 395.64,-3.24C400.44,-3.24 406.72,-10.6 414.48,-25.32C416,-28.28 417.28,-30.3 418.32,-31.38C419.36,-32.46 420.68,-33 422.28,-33C422.6,-33 423.42,-32.88 424.74,-32.64C426.06,-32.4 427.04,-32.36 427.68,-32.52C426.24,-31.08 424.2,-27.82 421.56,-22.74Z" style="fill:black;fill-rule:nonzero;"/>
    </g>
    <g transform="matrix(1.51499,0,0,1.51499,-3.45396,240.817)">
        <path d="M458.52,-6.96C458.52,-4.4 459.56,-3.12 461.64,-3.12C465.4,-3.12 470.4,-9.4 476.64,-21.96C476.88,-22.44 477.1,-22.92 477.3,-23.4C477.5,-23.88 477.82,-24.2 478.26,-24.36C478.7,-24.52 479,-24.42 479.16,-24.06C479.32,-23.7 479.24,-23.12 478.92,-22.32C472.52,-7.44 466.04,0 459.48,0C457.32,0 455.6,-0.96 454.32,-2.88C453.04,-4.8 452.4,-6.7 452.4,-8.58C452.4,-10.46 452.6,-12.2 453,-13.8C448.36,-6.12 444.36,-1.76 441,-0.72C440.04,-0.32 439.1,-0.12 438.18,-0.12C437.26,-0.12 436.36,-0.24 435.48,-0.48C431.56,-1.52 429.6,-4.64 429.6,-9.84C429.6,-13.36 430.5,-17.26 432.3,-21.54C434.1,-25.82 436.64,-29.92 439.92,-33.84C443.2,-37.76 447.16,-40.4 451.8,-41.76C453.48,-42.32 455.46,-42.6 457.74,-42.6C460.02,-42.6 462.56,-41.88 465.36,-40.44C470.8,-50.68 475.44,-60.16 479.28,-68.88C480.4,-71.52 481.5,-73.22 482.58,-73.98C483.66,-74.74 484.66,-75.12 485.58,-75.12C486.5,-75.12 487.06,-75.12 487.26,-75.12C487.46,-75.12 488.22,-75.02 489.54,-74.82C490.86,-74.62 491.88,-74.56 492.6,-74.64C490.76,-72.96 485.88,-64.8 477.96,-50.16C467.88,-31.44 461.8,-18.96 459.72,-12.72C458.92,-10.4 458.52,-8.48 458.52,-6.96ZM464.4,-38.52C463.36,-39.56 461.9,-40.08 460.02,-40.08C458.14,-40.08 455.52,-38.68 452.16,-35.88C446.8,-31.4 442.36,-25.88 438.84,-19.32C436.52,-15 435.36,-11.44 435.36,-8.64C435.36,-7.36 435.62,-6.2 436.14,-5.16C436.66,-4.12 437.48,-3.6 438.6,-3.6C441.32,-3.6 444.68,-6.4 448.68,-12C452.68,-17.6 457.92,-26.44 464.4,-38.52Z" style="fill:black;fill-rule:nonzero;"/>
    </g>
    <g transform="matrix(1.51499,0,0,1.51499,89.0971,408.061)">
        <path d="M79.68,-53.4C81.52,-53.4 82.44,-52.24 82.44,-49.92C82.44,-47.44 81.44,-45.12 79.44,-42.96C75.92,-39.04 72.68,-34.12 69.72,-28.2C65.24,-19.24 63,-11.16 63,-3.96C63,-1.16 63.5,0.88 64.5,2.16C65.5,3.44 66.64,4.08 67.92,4.08C71.76,4.08 76.24,0.96 81.36,-5.28C85.92,-11.12 89.4,-16.8 91.8,-22.32C92.44,-23.6 93.08,-24.16 93.72,-24C94.36,-23.84 94.4,-23.12 93.84,-21.84C90.56,-14.56 86.84,-8.16 82.68,-2.64C80.52,0.32 77.84,2.78 74.64,4.74C71.44,6.7 68.26,7.68 65.1,7.68C61.94,7.68 59.56,6.42 57.96,3.9C56.36,1.38 55.56,-1.6 55.56,-5.04C55.56,-8.48 55.98,-11.88 56.82,-15.24C57.66,-18.6 58.76,-21.2 60.12,-23.04C52.04,-13.36 43.44,-5.6 34.32,0.24C29.52,3.2 24.2,4.96 18.36,5.52C17.8,5.6 16.86,5.64 15.54,5.64C14.22,5.64 12.64,5.16 10.8,4.2C5.04,1.8 2.16,-4.06 2.16,-13.38C2.16,-22.7 5.2,-32.8 11.28,-43.68C14.48,-49.44 18,-54.52 21.84,-58.92C16.48,-61.48 12.48,-64.24 9.84,-67.2C7.92,-69.36 6.96,-71.96 6.96,-75C6.96,-78.04 7.56,-79.96 8.76,-80.76C9.56,-81.8 10.28,-82 10.92,-81.36C11.4,-80.64 11.42,-79.76 10.98,-78.72C10.54,-77.68 10.32,-76.68 10.32,-75.72C10.32,-73.56 11.48,-71.16 13.8,-68.52C16.12,-65.88 19.52,-63.52 24,-61.44C42.8,-82.32 62.32,-92.76 82.56,-92.76C88.88,-92.76 93.9,-91.34 97.62,-88.5C101.34,-85.66 103.2,-82 103.2,-77.52C103.2,-72.64 100.48,-67.92 95.04,-63.36C92.32,-60.96 88.44,-58.88 83.4,-57.12C75.72,-54.4 66.58,-53.04 55.98,-53.04C45.38,-53.04 36.6,-54.16 29.64,-56.4C21.56,-44.96 16,-35.46 12.96,-27.9C9.92,-20.34 8.4,-14.48 8.4,-10.32C8.4,-9.44 8.44,-8.64 8.52,-7.92C9.48,-1.28 12.84,2.04 18.6,2.04C25.08,2.04 32.6,-1.48 41.16,-8.52C47.24,-13.64 53.2,-19.72 59.04,-26.76C64.88,-33.8 69.22,-40 72.06,-45.36C74.9,-50.72 77.44,-53.4 79.68,-53.4ZM98.28,-78.96C98.28,-82.4 96.86,-85.04 94.02,-86.88C91.18,-88.72 87.28,-89.64 82.32,-89.64C77.36,-89.64 72.42,-88.84 67.5,-87.24C62.58,-85.64 57.98,-83.28 53.7,-80.16C49.42,-77.04 45.62,-73.84 42.3,-70.56C38.98,-67.28 35.4,-63.36 31.56,-58.8C37.56,-56.88 44.92,-55.92 53.64,-55.92C70.04,-55.92 82,-58.56 89.52,-63.84C95.36,-67.92 98.28,-72.96 98.28,-78.96Z" style="fill:black;fill-rule:nonzero;"/>
        <path d="M128.52,-39.36C118.68,-22.08 113.76,-10.8 113.76,-5.52C113.76,-3.44 114.52,-2.4 116.04,-2.4C120.12,-2.4 125.6,-9.32 132.48,-23.16C132.96,-24.28 133.44,-24.72 133.92,-24.48C134.4,-24.24 134.64,-23.92 134.64,-23.52C134.64,-23.12 134.48,-22.64 134.16,-22.08C129.92,-13.52 126.34,-7.62 123.42,-4.38C120.5,-1.14 117.58,0.48 114.66,0.48C111.74,0.48 109.52,-0.64 108,-2.88C107.2,-3.92 106.8,-5.34 106.8,-7.14C106.8,-8.94 107.2,-11.12 108,-13.68C108.8,-16.24 111,-20.4 114.6,-26.16C115.48,-27.6 115.92,-28.74 115.92,-29.58C115.92,-30.42 115.24,-30.84 113.88,-30.84C112.52,-30.84 109.92,-29.04 106.08,-25.44C100.32,-20.16 94.76,-12.24 89.4,-1.68C88.92,-0.88 88.38,-0.38 87.78,-0.18C87.18,0.02 86,0.16 84.24,0.24C82.48,0.32 81.32,0.52 80.76,0.84C82.04,-1.72 84.56,-6.96 88.32,-14.88C95.04,-28.88 99.44,-36.88 101.52,-38.88C102.48,-39.84 103.8,-40.32 105.48,-40.32C105.8,-40.32 106.62,-40.2 107.94,-39.96C109.26,-39.72 110.24,-39.68 110.88,-39.84C107.92,-38.24 103.08,-30.72 96.36,-17.28C100.12,-21.92 103.54,-25.62 106.62,-28.38C109.7,-31.14 113.4,-33.7 117.72,-36.06C122.04,-38.42 125.2,-39.6 127.2,-39.6C127.68,-39.6 128.12,-39.52 128.52,-39.36Z" style="fill:black;fill-rule:nonzero;"/>
        <path d="M168.72,-39.36C158.88,-22.08 153.96,-10.8 153.96,-5.52C153.96,-3.44 154.72,-2.4 156.24,-2.4C160.32,-2.4 165.8,-9.32 172.68,-23.16C173.16,-24.28 173.64,-24.72 174.12,-24.48C174.6,-24.24 174.84,-23.92 174.84,-23.52C174.84,-23.12 174.68,-22.64 174.36,-22.08C170.12,-13.52 166.54,-7.62 163.62,-4.38C160.7,-1.14 157.78,0.48 154.86,0.48C151.94,0.48 149.72,-0.64 148.2,-2.88C147.4,-3.92 147,-5.34 147,-7.14C147,-8.94 147.4,-11.12 148.2,-13.68C149,-16.24 151.2,-20.4 154.8,-26.16C155.68,-27.6 156.12,-28.74 156.12,-29.58C156.12,-30.42 155.44,-30.84 154.08,-30.84C152.72,-30.84 150.12,-29.04 146.28,-25.44C140.52,-20.16 134.96,-12.24 129.6,-1.68C129.12,-0.88 128.58,-0.38 127.98,-0.18C127.38,0.02 126.2,0.16 124.44,0.24C122.68,0.32 121.52,0.52 120.96,0.84C122.24,-1.72 124.76,-6.96 128.52,-14.88C135.24,-28.88 139.64,-36.88 141.72,-38.88C142.68,-39.84 144,-40.32 145.68,-40.32C146,-40.32 146.82,-40.2 148.14,-39.96C149.46,-39.72 150.44,-39.68 151.08,-39.84C148.12,-38.24 143.28,-30.72 136.56,-17.28C140.32,-21.92 143.74,-25.62 146.82,-28.38C149.9,-31.14 153.6,-33.7 157.92,-36.06C162.24,-38.42 165.4,-39.6 167.4,-39.6C167.88,-39.6 168.32,-39.52 168.72,-39.36Z" style="fill:black;fill-rule:nonzero;"/>
        <path d="M177.96,-18.48C176.84,-15.76 176.28,-12.72 176.28,-9.36C176.28,-7.12 176.78,-5.34 177.78,-4.02C178.78,-2.7 180.2,-2.04 182.04,-2.04C189.32,-2.04 195.92,-8.88 201.84,-22.56C202.4,-23.84 203.08,-24.4 203.88,-24.24C204.2,-24.16 204.36,-23.96 204.36,-23.64C204.36,-23.32 203.46,-21.22 201.66,-17.34C199.86,-13.46 198.04,-10.32 196.2,-7.92C192.12,-2.32 187.08,0.48 181.08,0.48C177.88,0.48 175.16,-0.56 172.92,-2.64C170.68,-4.72 169.56,-7.56 169.56,-11.16C169.56,-14.76 170.42,-18.58 172.14,-22.62C173.86,-26.66 176.2,-30.42 179.16,-33.9C182.12,-37.38 185.52,-39.92 189.36,-41.52C191.2,-42.32 192.96,-42.72 194.64,-42.72C196.32,-42.72 197.88,-42.24 199.32,-41.28C200.68,-40.16 201.36,-38.92 201.36,-37.56C201.36,-32.76 198.48,-28.16 192.72,-23.76C190.96,-22.4 188.48,-21.18 185.28,-20.1C182.08,-19.02 179.64,-18.48 177.96,-18.48ZM198.12,-37.68C198.12,-39.28 197.48,-40.08 196.2,-40.08C193.96,-40.08 190.56,-37.32 186,-31.8C183.28,-28.44 180.88,-24.68 178.8,-20.52C180.16,-20.52 182.14,-21 184.74,-21.96C187.34,-22.92 189.6,-24.2 191.52,-25.8C195.92,-29.56 198.12,-33.52 198.12,-37.68Z" style="fill:black;fill-rule:nonzero;"/>
    </g>
    <g transform="matrix(1.51499,0,0,1.51499,432.151,408.061)">
        <path d="M115.8,-84.6C124.28,-79.56 128.52,-73.48 128.52,-66.36C128.52,-60.76 125.4,-54.76 119.16,-48.36C115.56,-44.6 111.3,-41.36 106.38,-38.64C101.46,-35.92 96.6,-33.96 91.8,-32.76C83.48,-30.76 75.96,-29.76 69.24,-29.76C67.8,-29.76 66.36,-29.8 64.92,-29.88C59.08,-21.32 53.08,-14.04 46.92,-8.04C37.88,0.44 27.92,4.68 17.04,4.68C6.64,4.68 0.24,1.84 -2.16,-3.84C-2.72,-5.2 -3,-6.78 -3,-8.58C-3,-10.38 -2.08,-12.32 -0.24,-14.4C2.64,-17.68 6.68,-19.32 11.88,-19.32C15.24,-19.32 18.76,-18.72 22.44,-17.52C23.8,-17.04 24.28,-16.52 23.88,-15.96C23.56,-15.64 22.52,-15.8 20.76,-16.44C19,-17.08 16.82,-17.4 14.22,-17.4C11.62,-17.4 9.34,-16.42 7.38,-14.46C5.42,-12.5 4.44,-10.4 4.44,-8.16C4.44,-7.28 4.6,-6.4 4.92,-5.52C6.2,-1.2 9.84,0.96 15.84,0.96C24.8,0.96 33.6,-3.2 42.24,-11.52C48.4,-17.52 55.32,-28.32 63,-43.92C65.96,-49.76 69.64,-56.26 74.04,-63.42C78.44,-70.58 82.92,-76.72 87.48,-81.84C88.04,-82.4 88.76,-83.12 89.64,-84C91.32,-85.92 92.72,-87.44 93.84,-88.56C88.08,-89.36 81.92,-89.76 75.36,-89.76C68.8,-89.76 62.6,-89.22 56.76,-88.14C50.92,-87.06 45.84,-85.78 41.52,-84.3C37.2,-82.82 32.82,-80.9 28.38,-78.54C23.94,-76.18 20.2,-73.2 17.16,-69.6C13.16,-65.04 11.16,-60.28 11.16,-55.32C11.16,-52.28 12.24,-49.44 14.4,-46.8C16.72,-44 19.7,-42.6 23.34,-42.6C26.98,-42.6 30.5,-44 33.9,-46.8C37.3,-49.6 39.72,-53.04 41.16,-57.12C41.24,-57.68 41.42,-58.06 41.7,-58.26C41.98,-58.46 42.24,-58.44 42.48,-58.2C42.72,-57.96 42.84,-57.56 42.84,-57C42.76,-51.8 40.74,-47.7 36.78,-44.7C32.82,-41.7 28.44,-40.2 23.64,-40.2C18.2,-40.2 13.76,-41.8 10.32,-45C6.88,-48.2 5.16,-52.32 5.16,-57.36C5.16,-62 6.4,-66.18 8.88,-69.9C11.36,-73.62 14.32,-76.64 17.76,-78.96C21.2,-81.28 25.16,-83.36 29.64,-85.2C37.24,-88.24 45.22,-90.38 53.58,-91.62C61.94,-92.86 69.74,-93.48 76.98,-93.48C84.22,-93.48 90.92,-92.84 97.08,-91.56C99.96,-93.8 102.48,-95.32 104.64,-96.12C106.8,-96.92 108.02,-97.32 108.3,-97.32C108.58,-97.32 108.76,-97.28 108.84,-97.2C109.32,-97.2 109.42,-96.94 109.14,-96.42C108.86,-95.9 107.94,-95.12 106.38,-94.08C104.82,-93.04 103.32,-91.8 101.88,-90.36C107,-89 111.64,-87.08 115.8,-84.6ZM68.28,-32.4C74.12,-32.4 80.46,-33.42 87.3,-35.46C94.14,-37.5 100.2,-40.48 105.48,-44.4C115.72,-52.16 120.84,-60.16 120.84,-68.4C120.84,-77.76 113.76,-84.12 99.6,-87.48C95.12,-81.24 89.32,-71.76 82.2,-59.04C75.08,-46.32 69.88,-37.44 66.6,-32.4C67.16,-32.4 67.72,-32.4 68.28,-32.4Z" style="fill:black;fill-rule:nonzero;"/>
    </g>
    <g transform="matrix(1.51499,0,0,1.51499,584.862,408.061)">
        <path d="M37.2,-22.74C34.56,-17.66 32.98,-13.86 32.46,-11.34C31.94,-8.82 31.68,-6.78 31.68,-5.22C31.68,-3.66 32.28,-2.88 33.48,-2.88C35,-2.88 36.88,-4.28 39.12,-7.08C42.4,-11.16 45.64,-16.48 48.84,-23.04C49.16,-23.76 49.52,-24.16 49.92,-24.24C50.56,-24.48 50.88,-24.24 50.88,-23.52C50.88,-23.12 50.76,-22.64 50.52,-22.08C43.16,-7.2 36.96,0.24 31.92,0.24C29.6,0.24 27.72,-0.88 26.28,-3.12C25.56,-4.32 25.2,-5.92 25.2,-7.92C25.2,-9.92 25.6,-12.36 26.4,-15.24C20,-4.92 14.48,0.24 9.84,0.24C8.56,0.24 7.4,-0.16 6.36,-0.96C3.96,-2.64 2.76,-5.52 2.76,-9.6C2.76,-17.44 6.16,-25.4 12.96,-33.48C16.8,-37.96 21.52,-40.88 27.12,-42.24C28.64,-42.64 30.08,-42.84 31.44,-42.84C35.12,-42.84 38.24,-41.56 40.8,-39C41.6,-38.12 41.84,-37.28 41.52,-36.48C41.2,-35.68 40.52,-35.36 39.48,-35.52C38.6,-38.4 36.68,-39.84 33.72,-39.84C30.28,-39.84 26.04,-37.12 21,-31.68C18.12,-28.48 15.44,-24.72 12.96,-20.4C9.84,-15.2 8.28,-11.04 8.28,-7.92C8.28,-4.8 9.28,-3.24 11.28,-3.24C16.08,-3.24 22.36,-10.6 30.12,-25.32C31.64,-28.28 32.92,-30.3 33.96,-31.38C35,-32.46 36.32,-33 37.92,-33C38.24,-33 39.06,-32.88 40.38,-32.64C41.7,-32.4 42.68,-32.36 43.32,-32.52C41.88,-31.08 39.84,-27.82 37.2,-22.74Z" style="fill:black;fill-rule:nonzero;"/>
        <path d="M45.84,-9.6C45.84,-16.24 49.04,-27.36 55.44,-42.96L49.2,-42.96C48.8,-42.96 48.54,-43.18 48.42,-43.62C48.3,-44.06 48.34,-44.5 48.54,-44.94C48.74,-45.38 49.04,-45.6 49.44,-45.6L56.64,-45.6C59.52,-51.92 62.2,-57.2 64.68,-61.44C67.16,-65.68 69.44,-68.54 71.52,-70.02C73.6,-71.5 75.1,-72.24 76.02,-72.24C76.94,-72.24 77.6,-72.16 78,-72C79.84,-71.12 80.76,-69.3 80.76,-66.54C80.76,-63.78 79.84,-60.44 78,-56.52C76.16,-52.6 74.36,-48.96 72.6,-45.6L78.36,-45.6C78.76,-45.6 79.02,-45.38 79.14,-44.94C79.26,-44.5 79.22,-44.06 79.02,-43.62C78.82,-43.18 78.52,-42.96 78.12,-42.96L71.16,-42.96C66.76,-35.52 61.44,-28.92 55.2,-23.16L52.44,-10.92C52.2,-9.88 52.08,-8.86 52.08,-7.86C52.08,-6.86 52.36,-5.84 52.92,-4.8C53.48,-3.76 54.36,-3.24 55.56,-3.24C56.92,-3.24 58.44,-3.72 60.12,-4.68C63.96,-7.56 68.2,-13.6 72.84,-22.8C73.16,-23.52 73.54,-23.96 73.98,-24.12C74.42,-24.28 74.68,-24.18 74.76,-23.82C74.84,-23.46 74.72,-22.88 74.4,-22.08C71.76,-16.56 69.68,-12.64 68.16,-10.32C63.84,-3.36 59.24,0.12 54.36,0.12C51.88,0.12 49.84,-0.8 48.24,-2.64C46.64,-4.48 45.84,-6.8 45.84,-9.6ZM69.96,-45.6C75.24,-55.04 77.88,-61.6 77.88,-65.28C77.88,-66.88 77.6,-67.68 77.04,-67.68C76.16,-67.68 74.82,-66.4 73.02,-63.84C71.22,-61.28 68.2,-55.2 63.96,-45.6L69.96,-45.6ZM68.4,-42.96L62.76,-42.96C61.8,-40.72 59.64,-35.4 56.28,-27C60.6,-31.48 64.64,-36.8 68.4,-42.96Z" style="fill:black;fill-rule:nonzero;"/>
        <path d="M69.84,-9.6C69.84,-16.24 73.04,-27.36 79.44,-42.96L73.2,-42.96C72.8,-42.96 72.54,-43.18 72.42,-43.62C72.3,-44.06 72.34,-44.5 72.54,-44.94C72.74,-45.38 73.04,-45.6 73.44,-45.6L80.64,-45.6C83.52,-51.92 86.2,-57.2 88.68,-61.44C91.16,-65.68 93.44,-68.54 95.52,-70.02C97.6,-71.5 99.1,-72.24 100.02,-72.24C100.94,-72.24 101.6,-72.16 102,-72C103.84,-71.12 104.76,-69.3 104.76,-66.54C104.76,-63.78 103.84,-60.44 102,-56.52C100.16,-52.6 98.36,-48.96 96.6,-45.6L102.36,-45.6C102.76,-45.6 103.02,-45.38 103.14,-44.94C103.26,-44.5 103.22,-44.06 103.02,-43.62C102.82,-43.18 102.52,-42.96 102.12,-42.96L95.16,-42.96C90.76,-35.52 85.44,-28.92 79.2,-23.16L76.44,-10.92C76.2,-9.88 76.08,-8.86 76.08,-7.86C76.08,-6.86 76.36,-5.84 76.92,-4.8C77.48,-3.76 78.36,-3.24 79.56,-3.24C80.92,-3.24 82.44,-3.72 84.12,-4.68C87.96,-7.56 92.2,-13.6 96.84,-22.8C97.16,-23.52 97.54,-23.96 97.98,-24.12C98.42,-24.28 98.68,-24.18 98.76,-23.82C98.84,-23.46 98.72,-22.88 98.4,-22.08C95.76,-16.56 93.68,-12.64 92.16,-10.32C87.84,-3.36 83.24,0.12 78.36,0.12C75.88,0.12 73.84,-0.8 72.24,-2.64C70.64,-4.48 69.84,-6.8 69.84,-9.6ZM93.96,-45.6C99.24,-55.04 101.88,-61.6 101.88,-65.28C101.88,-66.88 101.6,-67.68 101.04,-67.68C100.16,-67.68 98.82,-66.4 97.02,-63.84C95.22,-61.28 92.2,-55.2 87.96,-45.6L93.96,-45.6ZM92.4,-42.96L86.76,-42.96C85.8,-40.72 83.64,-35.4 80.28,-27C84.6,-31.48 88.64,-36.8 92.4,-42.96Z" style="fill:black;fill-rule:nonzero;"/>
        <path d="M102.12,-18.48C101,-15.76 100.44,-12.72 100.44,-9.36C100.44,-7.12 100.94,-5.34 101.94,-4.02C102.94,-2.7 104.36,-2.04 106.2,-2.04C113.48,-2.04 120.08,-8.88 126,-22.56C126.56,-23.84 127.24,-24.4 128.04,-24.24C128.36,-24.16 128.52,-23.96 128.52,-23.64C128.52,-23.32 127.62,-21.22 125.82,-17.34C124.02,-13.46 122.2,-10.32 120.36,-7.92C116.28,-2.32 111.24,0.48 105.24,0.48C102.04,0.48 99.32,-0.56 97.08,-2.64C94.84,-4.72 93.72,-7.56 93.72,-11.16C93.72,-14.76 94.58,-18.58 96.3,-22.62C98.02,-26.66 100.36,-30.42 103.32,-33.9C106.28,-37.38 109.68,-39.92 113.52,-41.52C115.36,-42.32 117.12,-42.72 118.8,-42.72C120.48,-42.72 122.04,-42.24 123.48,-41.28C124.84,-40.16 125.52,-38.92 125.52,-37.56C125.52,-32.76 122.64,-28.16 116.88,-23.76C115.12,-22.4 112.64,-21.18 109.44,-20.1C106.24,-19.02 103.8,-18.48 102.12,-18.48ZM122.28,-37.68C122.28,-39.28 121.64,-40.08 120.36,-40.08C118.12,-40.08 114.72,-37.32 110.16,-31.8C107.44,-28.44 105.04,-24.68 102.96,-20.52C104.32,-20.52 106.3,-21 108.9,-21.96C111.5,-22.92 113.76,-24.2 115.68,-25.8C120.08,-29.56 122.28,-33.52 122.28,-37.68Z" style="fill:black;fill-rule:nonzero;"/>
        <path d="M142.56,-48.12C142.56,-44.52 140.28,-41.12 135.72,-37.92C137.32,-37.84 139.46,-37.8 142.14,-37.8C144.82,-37.8 148.2,-38 152.28,-38.4C152.44,-38.16 152.52,-37.52 152.52,-36.48C152.52,-35.44 152.04,-33.9 151.08,-31.86C150.12,-29.82 149.26,-28.06 148.5,-26.58C147.74,-25.1 147.02,-23.7 146.34,-22.38C145.66,-21.06 144.9,-19.44 144.06,-17.52C143.22,-15.6 142.52,-13.84 141.96,-12.24C139.96,-6.16 140.28,-3.12 142.92,-3.12C146.28,-3.12 151.24,-9.8 157.8,-23.16C158.36,-24.2 158.82,-24.6 159.18,-24.36C159.54,-24.12 159.72,-23.82 159.72,-23.46C159.72,-23.1 159.2,-21.86 158.16,-19.74C157.12,-17.62 156,-15.44 154.8,-13.2C153.6,-10.96 151.72,-8.36 149.16,-5.4C146.12,-1.72 143.2,0.12 140.4,0.12C137.28,0.12 135.12,-1.76 133.92,-5.52C133.68,-6.24 133.56,-7.32 133.56,-8.76C133.56,-10.2 134.02,-12.12 134.94,-14.52C135.86,-16.92 137.32,-19.84 139.32,-23.28C141.32,-26.72 142.44,-28.74 142.68,-29.34C142.92,-29.94 143.04,-30.52 143.04,-31.08C143.04,-33.56 139.84,-34.88 133.44,-35.04L132,-31.2C126.96,-18 122.12,-9.16 117.48,-4.68C116.68,-3.96 116.28,-4.2 116.28,-5.4C116.28,-5.64 116.36,-5.92 116.52,-6.24C121,-12.16 124.88,-19.16 128.16,-27.24C131.44,-35.32 133.72,-43 135,-50.28C135.48,-52.76 136.6,-54 138.36,-54C140.12,-54 141.4,-52.88 142.2,-50.64C142.44,-49.92 142.56,-49.08 142.56,-48.12Z" style="fill:black;fill-rule:nonzero;"/>
        <path d="M167.88,-2.28C168.92,-2.12 169.64,-2.04 170.04,-2.04C173.24,-2.04 176.4,-3.92 179.52,-7.68C181.2,-9.76 184.2,-15 188.52,-23.4C188.68,-23.8 188.96,-24 189.36,-24C190.08,-24.08 190.44,-23.8 190.44,-23.16C190.44,-23 190.26,-22.54 189.9,-21.78C189.54,-21.02 189.2,-20.26 188.88,-19.5C188.56,-18.74 188.04,-17.64 187.32,-16.2C186.6,-14.76 185.98,-13.6 185.46,-12.72C184.94,-11.84 184.28,-10.76 183.48,-9.48C182.68,-8.2 181.88,-7.2 181.08,-6.48L178.56,-3.84C177.2,-2.48 175.6,-1.52 173.76,-0.96C170.8,0 167.92,0.08 165.12,-0.72C163.28,0.08 161.64,0.48 160.2,0.48C154.52,0.48 151.08,-1.76 149.88,-6.24C149.64,-7.28 149.52,-8.54 149.52,-10.02C149.52,-11.5 150.02,-12.92 151.02,-14.28C152.02,-15.64 153.08,-16.36 154.2,-16.44C158.28,-24.2 161.76,-31.2 164.64,-37.44C167.84,-44.24 171.56,-47.64 175.8,-47.64C176.92,-47.64 178.02,-47.38 179.1,-46.86C180.18,-46.34 180.58,-45.76 180.3,-45.12C180.02,-44.48 179.44,-44.36 178.56,-44.76C177.68,-45.16 176.92,-45.36 176.28,-45.36C175.64,-45.36 175.08,-45.24 174.6,-45C171.88,-43.72 170.52,-40.96 170.52,-36.72C170.52,-34.48 170.84,-32.64 171.48,-31.2C172.12,-29.76 172.84,-28.2 173.64,-26.52C175.48,-22.36 176.4,-18.96 176.4,-16.32C176.4,-13.68 175.56,-11.08 173.88,-8.52C172.2,-5.96 170.2,-3.88 167.88,-2.28ZM163.8,-3.12C167.32,-5.84 169.08,-10.24 169.08,-16.32C169.08,-18.8 168.8,-22.2 168.24,-26.52C167.68,-30.84 167.4,-33.76 167.4,-35.28C167.4,-36.8 167.44,-37.84 167.52,-38.4C161.44,-26.24 157.68,-18.84 156.24,-16.2C157.92,-16.2 158.76,-15 158.76,-12.6C158.76,-7.88 160.44,-4.72 163.8,-3.12ZM154.8,-6.36C154.8,-5.88 154.84,-5.36 154.92,-4.8C155.56,-2.64 157.04,-1.56 159.36,-1.56C160.32,-1.56 161.12,-1.72 161.76,-2.04C158.8,-3.88 157.2,-6.88 156.96,-11.04C155.52,-9.6 154.8,-8.04 154.8,-6.36Z" style="fill:black;fill-rule:nonzero;"/>
        <path d="M210.12,-42C215.96,-42 218.88,-38.32 218.88,-30.96C218.88,-27.6 218,-24 216.24,-20.16C214,-14.96 210.64,-10.24 206.16,-6C207.2,-4 209.08,-3 211.8,-3C213.96,-3 216,-4.08 217.92,-6.24C220.32,-8.72 222.04,-10.9 223.08,-12.78C224.12,-14.66 224.88,-16.04 225.36,-16.92C225.84,-17.8 226.46,-19.06 227.22,-20.7C227.98,-22.34 228.44,-23.34 228.6,-23.7C228.76,-24.06 229.04,-24.24 229.44,-24.24C230.24,-24.32 230.64,-24.04 230.64,-23.4C230.64,-23.16 230.56,-22.88 230.4,-22.56L229.68,-20.88C229.2,-19.76 228.84,-18.96 228.6,-18.48C228.36,-18 227.94,-17.14 227.34,-15.9C226.74,-14.66 226.22,-13.68 225.78,-12.96C225.34,-12.24 224.74,-11.28 223.98,-10.08C223.22,-8.88 222.54,-7.92 221.94,-7.2C221.34,-6.48 220.6,-5.68 219.72,-4.8C218.84,-3.92 218,-3.24 217.2,-2.76C215.2,-1.56 213.32,-0.96 211.56,-0.96C208.28,-0.96 205.72,-2 203.88,-4.08C200.2,-1.36 196.8,0 193.68,0C187.84,0 184.92,-3.68 184.92,-11.04C184.92,-14.4 185.8,-18 187.56,-21.84C189.96,-27.44 193.34,-32.2 197.7,-36.12C202.06,-40.04 206.2,-42 210.12,-42ZM211.44,-38.28C209.28,-38.28 206.72,-36.84 203.76,-33.96C200.8,-31.08 198.16,-27.16 195.84,-22.2C193.04,-16.44 191.64,-11.72 191.64,-8.04C191.64,-4.36 193.04,-2.52 195.84,-2.52C197.84,-2.52 200.08,-3.6 202.56,-5.76C201.28,-7.6 200.64,-9.56 200.64,-11.64C200.8,-15.08 202.2,-16.8 204.84,-16.8C205.88,-16.8 206.74,-16.44 207.42,-15.72C208.1,-15 208.44,-14.34 208.44,-13.74C208.44,-13.14 208.36,-12.52 208.2,-11.88C209.56,-13.88 211.12,-16.72 212.88,-20.4C214.88,-24.48 215.88,-28.48 215.88,-32.4C215.88,-36.32 214.4,-38.28 211.44,-38.28Z" style="fill:black;fill-rule:nonzero;"/>
        <path d="M264.72,-39.36C254.88,-22.08 249.96,-10.8 249.96,-5.52C249.96,-3.44 250.72,-2.4 252.24,-2.4C256.32,-2.4 261.8,-9.32 268.68,-23.16C269.16,-24.28 269.64,-24.72 270.12,-24.48C270.6,-24.24 270.84,-23.92 270.84,-23.52C270.84,-23.12 270.68,-22.64 270.36,-22.08C266.12,-13.52 262.54,-7.62 259.62,-4.38C256.7,-1.14 253.78,0.48 250.86,0.48C247.94,0.48 245.72,-0.64 244.2,-2.88C243.4,-3.92 243,-5.34 243,-7.14C243,-8.94 243.4,-11.12 244.2,-13.68C245,-16.24 247.2,-20.4 250.8,-26.16C251.68,-27.6 252.12,-28.74 252.12,-29.58C252.12,-30.42 251.44,-30.84 250.08,-30.84C248.72,-30.84 246.12,-29.04 242.28,-25.44C236.52,-20.16 230.96,-12.24 225.6,-1.68C225.12,-0.88 224.58,-0.38 223.98,-0.18C223.38,0.02 222.2,0.16 220.44,0.24C218.68,0.32 217.52,0.52 216.96,0.84C218.24,-1.72 220.76,-6.96 224.52,-14.88C231.24,-28.88 235.64,-36.88 237.72,-38.88C238.68,-39.84 240,-40.32 241.68,-40.32C242,-40.32 242.82,-40.2 244.14,-39.96C245.46,-39.72 246.44,-39.68 247.08,-39.84C244.12,-38.24 239.28,-30.72 232.56,-17.28C236.32,-21.92 239.74,-25.62 242.82,-28.38C245.9,-31.14 249.6,-33.7 253.92,-36.06C258.24,-38.42 261.4,-39.6 263.4,-39.6C263.88,-39.6 264.32,-39.52 264.72,-39.36Z" style="fill:black;fill-rule:nonzero;"/>
    </g>
    <g transform="matrix(0.811859,0,0,0.811859,274.173,324.956)">
        <path d="M76.008,-82.617C76.008,-80.602 75.75,-78.633 75.234,-76.711C74.719,-74.789 73.852,-72.914 72.633,-71.086C71.414,-69.258 70.301,-67.699 69.293,-66.41C68.285,-65.121 66.773,-63.574 64.758,-61.77C62.742,-59.965 61.254,-58.664 60.293,-57.867C59.332,-57.07 57.703,-55.781 55.406,-54L75.656,-32.414L98.297,-57.164L108.844,-46.477L86.203,-21.234L108.844,2.883L86.695,2.883L74.18,-10.055C71.93,-7.898 69.773,-6.023 67.711,-4.43C65.648,-2.836 63.082,-1.148 60.012,0.633C56.941,2.414 53.508,3.785 49.711,4.746C45.914,5.707 41.906,6.188 37.688,6.188C29.063,6.188 22.254,3.727 17.262,-1.195C12.27,-6.117 9.773,-12.328 9.773,-19.828C9.773,-23.203 10.301,-26.508 11.355,-29.742C12.41,-32.977 13.641,-35.742 15.047,-38.039C16.453,-40.336 18.258,-42.656 20.461,-45C22.664,-47.344 24.492,-49.137 25.945,-50.379C27.398,-51.621 29.109,-52.992 31.078,-54.492C27.047,-58.664 23.918,-62.602 21.691,-66.305C19.465,-70.008 18.352,-74.227 18.352,-78.961C18.352,-86.367 21.387,-92.414 27.457,-97.102C33.527,-101.789 40.945,-104.133 49.711,-104.133C57.539,-104.133 63.879,-102.094 68.73,-98.016C73.582,-93.938 76.008,-88.805 76.008,-82.617ZM48.516,-88.313C45,-88.313 42.012,-87.293 39.551,-85.254C37.09,-83.215 35.859,-80.906 35.859,-78.328C35.859,-77.672 35.918,-77.051 36.035,-76.465C36.152,-75.879 36.398,-75.246 36.773,-74.566C37.148,-73.887 37.477,-73.324 37.758,-72.879C38.039,-72.434 38.531,-71.824 39.234,-71.051C39.938,-70.277 40.465,-69.691 40.816,-69.293C41.168,-68.895 41.836,-68.203 42.82,-67.219C43.805,-66.234 44.508,-65.531 44.93,-65.109C50.461,-69.328 53.859,-72.094 55.125,-73.406C57.422,-75.75 58.57,-78.07 58.57,-80.367C58.57,-82.43 57.668,-84.27 55.863,-85.887C54.059,-87.504 51.609,-88.313 48.516,-88.313ZM41.977,-43.313C40.008,-41.766 38.461,-40.512 37.336,-39.551C36.211,-38.59 34.922,-37.371 33.469,-35.895C32.016,-34.418 30.902,-33.082 30.129,-31.887C29.355,-30.691 28.688,-29.32 28.125,-27.773C27.563,-26.227 27.281,-24.633 27.281,-22.992C27.281,-19.383 28.641,-16.301 31.359,-13.746C34.078,-11.191 37.523,-9.914 41.695,-9.914C45.633,-9.914 49.348,-10.934 52.84,-12.973C56.332,-15.012 59.859,-17.719 63.422,-21.094L41.977,-43.313Z" style="fill:rgb(175,47,0);fill-rule:nonzero;"/>
    </g>
    <g transform="matrix(2.53112,0,0,2.53112,144.296,65.5937)">
        <path d="M0.996,-16.652L16.043,-16.652L16.043,-13.934L9.996,-13.934L9.996,0L7.043,0L7.043,-13.934L0.996,-13.934L0.996,-16.652Z" style="fill:rgb(175,49,36);fill-rule:nonzero;"/>
    </g>
    <g transform="matrix(2.53112,0,0,2.53112,144.296,65.5937)">
        <path d="M31.359,-16.652L34.313,-16.652L34.313,0L31.359,0L31.359,-7.23L22.453,-7.23L22.453,0L19.5,0L19.5,-16.652L22.453,-16.652L22.453,-9.949L31.359,-9.949L31.359,-16.652Z" style="fill:rgb(175,49,36);fill-rule:nonzero;"/>
    </g>
    <g transform="matrix(2.53112,0,0,2.53112,144.296,65.5937)">
        <path d="M40.172,0L40.172,-16.652L51.855,-16.652L51.855,-13.934L43.137,-13.934L43.137,-9.938L51.211,-9.938L51.211,-7.219L43.137,-7.219L43.137,-2.719L51.855,-2.719L51.855,0L40.172,0Z" style="fill:rgb(175,49,36);fill-rule:nonzero;"/>
    </g>
    <g transform="matrix(2.53112,0,0,2.53112,144.296,65.5937)">
        <path d="M61.934,-16.652L65.051,-16.652L68.883,-3.855L73.699,-16.652L76.418,-16.652L80.379,-3.855L85.066,-16.652L88.184,-16.652L81.797,0L78.973,0L74.965,-12.738L70.254,0L67.43,0L61.934,-16.652Z" style="fill:rgb(175,49,36);fill-rule:nonzero;"/>
    </g>
    <g transform="matrix(2.53112,0,0,2.53112,144.296,65.5937)">
        <path d="M91.945,0L91.945,-16.652L103.629,-16.652L103.629,-13.934L94.91,-13.934L94.91,-9.938L102.984,-9.938L102.984,-7.219L94.91,-7.219L94.91,-2.719L103.629,-2.719L103.629,0L91.945,0Z" style="fill:rgb(175,49,36);fill-rule:nonzero;"/>
    </g>
    <g transform="matrix(2.53112,0,0,2.53112,144.296,65.5937)">
        <path d="M114.984,-13.934L111.949,-13.934L111.949,-2.719L114.094,-2.719C114.633,-2.719 115.078,-2.727 115.43,-2.742C115.781,-2.758 116.242,-2.813 116.813,-2.906C117.383,-3 117.869,-3.131 118.271,-3.299C118.674,-3.467 119.092,-3.721 119.525,-4.061C119.959,-4.4 120.32,-4.813 120.609,-5.297C121.141,-6.188 121.406,-7.23 121.406,-8.426C121.406,-9.113 121.311,-9.746 121.119,-10.324C120.928,-10.902 120.674,-11.389 120.357,-11.783C120.041,-12.178 119.67,-12.523 119.244,-12.82C118.818,-13.117 118.387,-13.348 117.949,-13.512C117.512,-13.676 117.063,-13.789 116.602,-13.852C116.211,-13.906 115.672,-13.934 114.984,-13.934ZM114.902,-16.652C115.949,-16.652 116.914,-16.57 117.797,-16.406C118.68,-16.242 119.441,-16.02 120.082,-15.738C120.723,-15.457 121.293,-15.117 121.793,-14.719C122.293,-14.32 122.703,-13.895 123.023,-13.441C123.344,-12.988 123.607,-12.496 123.814,-11.965C124.021,-11.434 124.166,-10.912 124.248,-10.4C124.33,-9.889 124.371,-9.359 124.371,-8.813C124.371,-8.094 124.313,-7.4 124.195,-6.732C124.078,-6.064 123.871,-5.385 123.574,-4.693C123.277,-4.002 122.896,-3.381 122.432,-2.83C121.967,-2.279 121.361,-1.783 120.615,-1.342C119.869,-0.9 119.016,-0.574 118.055,-0.363C117.563,-0.254 117.016,-0.17 116.414,-0.111C115.813,-0.053 115.318,-0.02 114.932,-0.012C114.545,-0.004 114.004,0 113.309,0L108.996,0L108.996,-16.652L114.902,-16.652Z" style="fill:rgb(175,49,36);fill-rule:nonzero;"/>
    </g>
    <g transform="matrix(2.53112,0,0,2.53112,144.296,65.5937)">
        <path d="M135.727,-13.934L132.691,-13.934L132.691,-2.719L134.836,-2.719C135.375,-2.719 135.82,-2.727 136.172,-2.742C136.523,-2.758 136.984,-2.813 137.555,-2.906C138.125,-3 138.611,-3.131 139.014,-3.299C139.416,-3.467 139.834,-3.721 140.268,-4.061C140.701,-4.4 141.063,-4.813 141.352,-5.297C141.883,-6.188 142.148,-7.23 142.148,-8.426C142.148,-9.113 142.053,-9.746 141.861,-10.324C141.67,-10.902 141.416,-11.389 141.1,-11.783C140.783,-12.178 140.412,-12.523 139.986,-12.82C139.561,-13.117 139.129,-13.348 138.691,-13.512C138.254,-13.676 137.805,-13.789 137.344,-13.852C136.953,-13.906 136.414,-13.934 135.727,-13.934ZM135.645,-16.652C136.691,-16.652 137.656,-16.57 138.539,-16.406C139.422,-16.242 140.184,-16.02 140.824,-15.738C141.465,-15.457 142.035,-15.117 142.535,-14.719C143.035,-14.32 143.445,-13.895 143.766,-13.441C144.086,-12.988 144.35,-12.496 144.557,-11.965C144.764,-11.434 144.908,-10.912 144.99,-10.4C145.072,-9.889 145.113,-9.359 145.113,-8.813C145.113,-8.094 145.055,-7.4 144.938,-6.732C144.82,-6.064 144.613,-5.385 144.316,-4.693C144.02,-4.002 143.639,-3.381 143.174,-2.83C142.709,-2.279 142.104,-1.783 141.357,-1.342C140.611,-0.9 139.758,-0.574 138.797,-0.363C138.305,-0.254 137.758,-0.17 137.156,-0.111C136.555,-0.053 136.061,-0.02 135.674,-0.012C135.287,-0.004 134.746,0 134.051,0L129.738,0L129.738,-16.652L135.645,-16.652Z" style="fill:rgb(175,49,36);fill-rule:nonzero;"/>
    </g>
    <g transform="matrix(2.53112,0,0,2.53112,144.296,65.5937)">
        <rect x="150.738" y="-16.652" width="2.953" height="16.652" style="fill:rgb(175,49,36);"/>
    </g>
    <g transform="matrix(2.53112,0,0,2.53112,144.296,65.5937)">
        <path d="M159.902,-16.652L163.16,-16.652L172.453,-3.855L172.453,-16.652L175.406,-16.652L175.406,0L172.113,0L162.855,-12.82L162.855,0L159.902,0L159.902,-16.652Z" style="fill:rgb(175,49,36);fill-rule:nonzero;"/>
    </g>
    <g transform="matrix(2.53112,0,0,2.53112,144.296,65.5937)">
        <path d="M196.676,-2.414C195.059,-0.648 192.746,0.234 189.738,0.234C188.457,0.234 187.287,0.068 186.229,-0.264C185.17,-0.596 184.285,-1.037 183.574,-1.588C182.863,-2.139 182.264,-2.785 181.775,-3.527C181.287,-4.27 180.934,-5.041 180.715,-5.842C180.496,-6.643 180.387,-7.465 180.387,-8.309C180.387,-9.191 180.508,-10.043 180.75,-10.863C180.992,-11.684 181.369,-12.453 181.881,-13.172C182.393,-13.891 183.01,-14.518 183.732,-15.053C184.455,-15.588 185.328,-16.01 186.352,-16.318C187.375,-16.627 188.492,-16.781 189.703,-16.781C191.914,-16.781 193.902,-16.289 195.668,-15.305L196.078,-15.07L194.848,-12.75L194.426,-12.973C193.871,-13.254 193.176,-13.506 192.34,-13.729C191.504,-13.951 190.664,-14.063 189.82,-14.063C188.992,-14.063 188.191,-13.934 187.418,-13.676C186.645,-13.418 185.955,-13.055 185.35,-12.586C184.744,-12.117 184.26,-11.521 183.896,-10.799C183.533,-10.076 183.352,-9.285 183.352,-8.426C183.352,-7.293 183.648,-6.273 184.242,-5.367C184.836,-4.461 185.658,-3.756 186.709,-3.252C187.76,-2.748 188.941,-2.496 190.254,-2.496C191.691,-2.496 192.867,-2.82 193.781,-3.469L193.781,-6.668L188.566,-6.668L188.566,-9.27L196.676,-9.27L196.676,-2.414Z" style="fill:rgb(175,49,36);fill-rule:nonzero;"/>
    </g>
    <g transform="matrix(2.53112,0,0,2.53112,144.296,65.5937)">
        <path d="M216.316,-16.828C218.012,-16.828 219.52,-16.496 220.84,-15.832C222.16,-15.168 223.199,-14.201 223.957,-12.932C224.715,-11.662 225.094,-10.188 225.094,-8.508C225.094,-6.805 224.723,-5.295 223.98,-3.979C223.238,-2.662 222.195,-1.641 220.852,-0.914C219.508,-0.188 217.965,0.176 216.223,0.176C215.074,0.176 213.984,-0.002 212.953,-0.357C211.922,-0.713 210.998,-1.232 210.182,-1.916C209.365,-2.6 208.717,-3.488 208.236,-4.582C207.756,-5.676 207.516,-6.91 207.516,-8.285C207.516,-9.996 207.891,-11.502 208.641,-12.803C209.391,-14.104 210.43,-15.1 211.758,-15.791C213.086,-16.482 214.605,-16.828 216.316,-16.828ZM216.199,-14.121C215.637,-14.121 215.09,-14.053 214.559,-13.916C214.027,-13.779 213.518,-13.564 213.029,-13.271C212.541,-12.979 212.113,-12.617 211.746,-12.188C211.379,-11.758 211.086,-11.229 210.867,-10.6C210.648,-9.971 210.539,-9.277 210.539,-8.52C210.539,-6.715 211.098,-5.266 212.215,-4.172C213.332,-3.078 214.727,-2.531 216.398,-2.531C217.094,-2.531 217.768,-2.645 218.42,-2.871C219.072,-3.098 219.676,-3.434 220.23,-3.879C220.785,-4.324 221.23,-4.93 221.566,-5.695C221.902,-6.461 222.07,-7.332 222.07,-8.309C222.07,-9.105 221.953,-9.834 221.719,-10.494C221.484,-11.154 221.174,-11.703 220.787,-12.141C220.4,-12.578 219.951,-12.949 219.439,-13.254C218.928,-13.559 218.4,-13.779 217.857,-13.916C217.314,-14.053 216.762,-14.121 216.199,-14.121Z" style="fill:rgb(175,49,36);fill-rule:nonzero;"/>
    </g>
    <g transform="matrix(2.53112,0,0,2.53112,144.296,65.5937)">
        <path d="M233.039,-13.934L233.039,-9.938L240.938,-9.938L240.938,-7.219L233.039,-7.219L233.039,0L230.074,0L230.074,-16.652L241.641,-16.652L241.641,-13.934L233.039,-13.934Z" style="fill:rgb(175,49,36);fill-rule:nonzero;"/>
    </g>
</svg>
